<svg xmlns="http://www.w3.org/2000/svg" width="62" height="44" fill="none"><path fill="#fff" fill-rule="evenodd" d="M.693 0A16.136 16.136 0 0 0 3.91 1.987a29.844 29.844 0 0 0 6.027 1.838 60 60 0 0 0 5.4.812c1.3.123 2.6.231 3.9.324 4.57.499 8.494 2.324 11.769 5.475 3.286-3.15 7.218-4.974 11.796-5.475a75.284 75.284 0 0 0 8.318-.946 37.914 37.914 0 0 0 5.29-1.352A15.522 15.522 0 0 0 61.308 0a.593.593 0 0 1-.054.243 361.81 361.81 0 0 0-2.073 5.759 10.864 10.864 0 0 1-2.686 3.906 7.009 7.009 0 0 1-3.682 1.65.692.692 0 0 1-.273 0c2.287-1.257 3.792-3.136 4.514-5.637a8.94 8.94 0 0 0 .259-1.325 26.745 26.745 0 0 1-5.673 1.717c-.623.11-1.25.19-1.882.243l-3.382.19c-1.691.154-3.373.38-5.045.675a16.891 16.891 0 0 0-6.791 2.839 20.166 20.166 0 0 0-2.114 1.717.124.124 0 0 0 .027.108 14.942 14.942 0 0 1 3.082 7.164 36.27 36.27 0 0 1-.614 14.545 10.57 10.57 0 0 1-1.309.014c.316-1.576.53-3.167.641-4.772.184-1.89.23-3.782.137-5.678a19.36 19.36 0 0 0-1.664-7.029 14.57 14.57 0 0 0-1.718-2.784 15.845 15.845 0 0 0-3.027 6.975 27.767 27.767 0 0 0-.355 6.407 52.79 52.79 0 0 0 .777 6.894h-1.309a36.556 36.556 0 0 1-.395-15.707 15.107 15.107 0 0 1 2.89-6.056.067.067 0 0 0 0-.081 17.88 17.88 0 0 0-6.777-4.042 19.606 19.606 0 0 0-2.264-.54 61.688 61.688 0 0 0-4.909-.65 249.706 249.706 0 0 1-3.681-.216 23.828 23.828 0 0 1-7.242-1.96c.35 2.669 1.609 4.8 3.778 6.394.318.212.645.41.982.595a6.387 6.387 0 0 1-3.028-.974A8.582 8.582 0 0 1 3.68 7.651a18.113 18.113 0 0 1-.845-1.676A481 481 0 0 0 .693 0z" clip-rule="evenodd" opacity=".991"/><path fill="#fff" fill-rule="evenodd" d="M25.702 1.622c3.564-.004 7.128 0 10.692.014a.73.73 0 0 1 .531.581c.074 1.082.124 2.163.15 3.244a20.385 20.385 0 0 0-6.068 4.029 19.158 19.158 0 0 0-6.04-4.002c.061-1.09.13-2.18.204-3.27a.776.776 0 0 1 .531-.596z" clip-rule="evenodd" opacity=".996"/><path fill="#FFCB00" fill-rule="evenodd" d="M33.063 2.907v.027h-1.419V1.637h1.419v1.27z" clip-rule="evenodd"/><path fill="#FFCB00" fill-rule="evenodd" d="M31.69 2.907v1.297H30.3v-1.27h-1.392v1.27h-1.39v-1.27c.459.01.913 0 1.363-.027v-1.27h1.445v1.27h1.364zm4.155 0v.027h-1.391v1.27h-1.391V2.907h1.363v-1.27h1.419v1.27z" clip-rule="evenodd"/><path fill="#FFCB00" fill-rule="evenodd" d="M26.08 2.907v.027h1.391v1.27h1.391V2.907H27.5v-1.27h-1.42v1.27zm9.795-.043h.928c-.007.035.002.062.027.081.027.405.045.81.054 1.217h-1.009V2.864zm-9.824 0h-.927c.007.035-.003.062-.027.081-.028.405-.046.81-.055 1.217h1.01V2.864z" clip-rule="evenodd"/><path fill="#fff" fill-rule="evenodd" d="M5.356 12.085a7.005 7.005 0 0 0 3.56 1.081 641.04 641.04 0 0 0 2.358-.19 5.527 5.527 0 0 1 3.028.96 19.982 19.982 0 0 0-1.828-.121c-.4.008-.8.03-1.2.068-.7.105-1.4.213-2.1.324a3.812 3.812 0 0 1-2.427-.757 6.638 6.638 0 0 1-1.391-1.365zm51.274 0a.067.067 0 0 1 .055.013 6.67 6.67 0 0 1-2.21 1.811 3.583 3.583 0 0 1-1.636.298 55.151 55.151 0 0 1-1.854-.298 12.1 12.1 0 0 0-1.882-.08c-.466.025-.93.061-1.391.107a5.524 5.524 0 0 1 3.027-.96c.787.065 1.573.128 2.36.19a6.721 6.721 0 0 0 3.531-1.082zM15.066 14.87a4.605 4.605 0 0 1 2.154.35 10.018 10.018 0 0 0-2.918.798c-.393.213-.792.411-1.2.595a3.02 3.02 0 0 1-2.264-.108 6.48 6.48 0 0 1-1.582-1 7.01 7.01 0 0 0 2.019.365 5.117 5.117 0 0 0 1.445-.23 65.487 65.487 0 0 1 1.664-.622c.228-.062.455-.111.681-.149z" clip-rule="evenodd" opacity=".977"/><path fill="#fff" fill-rule="evenodd" d="M46.102 14.87a4.43 4.43 0 0 1 1.8.23c.52.219 1.047.417 1.582.594a5.244 5.244 0 0 0 3.246-.203l.027.028a5.64 5.64 0 0 1-2.4 1.23 2.775 2.775 0 0 1-1.446-.136l-1.309-.648c-.9-.38-1.836-.627-2.809-.744.424-.177.86-.294 1.31-.351z" clip-rule="evenodd" opacity=".975"/><path fill="#fff" fill-rule="evenodd" d="M19.811 15.68c.291-.004.582 0 .873.014.196.017.387.058.572.122a8.817 8.817 0 0 0-3.19 1.582 2.433 2.433 0 0 1-1.937.189 5.13 5.13 0 0 1-1.418-.676c.678.147 1.36.156 2.045.027.253-.06.499-.14.737-.243l1.418-.758a4.81 4.81 0 0 1 .9-.256z" clip-rule="evenodd" opacity=".971"/><path fill="#fff" fill-rule="evenodd" d="M41.33 15.68a3.64 3.64 0 0 1 1.773.258l1.364.73a4.257 4.257 0 0 0 2.809.23l.027.026a4.39 4.39 0 0 1-2.018.77 2.302 2.302 0 0 1-1.282-.27 13.592 13.592 0 0 0-1.746-1.08 11.36 11.36 0 0 0-1.5-.528c.192-.056.383-.101.573-.135z" clip-rule="evenodd" opacity=".972"/><path fill="#FFCB00" fill-rule="evenodd" d="M27.475 35.254c.414-.027.832-.036 1.255-.027.108.488.235.97.381 1.446a8.758 8.758 0 0 1-1.186-.013c-.154-.471-.304-.94-.45-1.406z" clip-rule="evenodd" opacity=".976"/><path fill="#FFCB00" fill-rule="evenodd" d="M33.312 35.227h1.227c-.14.488-.285.975-.437 1.46H32.93l.382-1.46z" clip-rule="evenodd" opacity=".975"/><path fill="#FFCB00" fill-rule="evenodd" d="M28.456 38.12c.37-.009.739 0 1.105.027a37.14 37.14 0 0 0 1.445 3.65 35.724 35.724 0 0 0 1.46-3.65 7.714 7.714 0 0 1 1.118-.014A39.328 39.328 0 0 1 31.02 43.5a32.02 32.02 0 0 1-2.564-5.38z" clip-rule="evenodd" opacity=".981"/></svg>