<svg xmlns="http://www.w3.org/2000/svg" width="21" height="21" fill="none"><path stroke="#fff" stroke-linecap="round" stroke-linejoin="round" stroke-width="2" d="M12.66 4.606a4.434 4.434 0 0 1 3.502 3.503m-3.503-7.05A7.981 7.981 0 0 1 19.71 8.1m-.887 7.076v2.66a1.774 1.774 0 0 1-1.933 1.774 17.55 17.55 0 0 1-7.653-2.722 17.292 17.292 0 0 1-5.32-5.32 17.549 17.549 0 0 1-2.723-7.689 1.774 1.774 0 0 1 1.765-1.933h2.66A1.774 1.774 0 0 1 7.392 3.47c.112.851.32 1.687.62 2.492a1.774 1.774 0 0 1-.399 1.87L6.487 8.96a14.189 14.189 0 0 0 5.32 5.32l1.127-1.125a1.773 1.773 0 0 1 1.871-.4c.805.3 1.64.509 2.492.621a1.774 1.774 0 0 1 1.525 1.8z"/></svg>