<svg xmlns="http://www.w3.org/2000/svg" width="289" height="272" fill="none"><g clip-path="url(#a)"><path fill="#fff" d="M.41 193.663C.296 129.668.3 65.684.263 1.7.262.503.498.262 1.695.263 48.516.3 95.338.296 142.297.296c.166.074.194.148.152.318-1.137.513-2.284.465-3.39.663-4.93.882-9.725 2.07-13.529 5.66-1.129 1.066-2.001 2.288-2.517 3.765-4.208 12.04-8.532 24.037-12.775 36.064-.557 1.579-1.067 3.179-1.702 4.724-.502 1.224-.256 2.12.564 3.09 2.921 3.456 6.737 5.55 10.829 7.189 6.404 2.565 13.103 3.67 19.966 4.126 9.528.635 18.828-.373 27.883-3.4 4.032-1.35 7.816-3.218 11.002-6.13.108-.1.221-.196.334-.29 1.9-1.603 2.527-3.263 1.542-5.899-4.548-12.176-8.754-24.48-13.146-36.714-.832-2.317-1.496-4.669-3.405-6.447-1.797-1.674-3.792-2.943-6.075-3.81-3.427-1.3-7.005-1.907-10.718-2.435-.149-.123-.195-.187-.2-.363C194.074.296 240.994.302 287.914.26c1.235 0 1.411.3 1.411 1.459-.034 63.984-.03 127.968-.03 192.09-.561.192-.611-.285-.728-.625-1.2-3.507-3.771-5.808-6.757-7.739-2.706-1.749-5.726-2.821-8.69-4.013-14.732-5.926-29.435-11.926-44.171-17.844-2.455-.987-4.89-2.019-7.393-2.978-.363.596-.04 1.042.112 1.464 1.511 4.167 2.81 8.419 4.516 12.503 1.435 3.435 1.076 6.606-.414 9.836-2.24 4.858-5.931 8.399-10.222 11.398-7.973 5.572-16.925 8.921-26.193 11.535-8.204 2.314-16.579 3.753-25.041 4.665a181.741 181.741 0 0 1-26.625.905c-11.354-.447-22.619-1.826-33.667-4.566-9.96-2.469-19.632-5.737-28.332-11.38-4.373-2.837-8.274-6.177-11.007-10.718-1.398-2.32-2.178-4.832-2.437-7.523-.064-.669.14-1.257.353-1.864 1.79-5.114 3.612-10.215 5.457-15.309.083-.228.203-.454.091-.747-.56-.265-1.013.144-1.475.33-18.2 7.32-36.368 14.715-54.556 22.063-3.669 1.483-6.995 3.555-9.497 6.78-.89 1.147-1.136 2.614-2.208 3.681z"/><path fill="#FFCB00" d="M.295 193.79c2.143-6.054 6.936-9.034 12.368-11.238 18.516-7.513 37.047-14.986 55.573-22.473.18-.073.367-.131.606-.216.245.537-.12.95-.264 1.358-1.69 4.765-3.31 9.557-5.159 14.259-.928 2.361-.83 4.568-.063 6.872 1.826 5.49 5.688 9.348 10.185 12.651 7.087 5.205 15.098 8.51 23.443 11.006 18.541 5.547 37.529 7.24 56.796 6.353 13.437-.618 26.656-2.573 39.527-6.581 8.085-2.517 15.838-5.766 22.736-10.804 3.078-2.249 5.815-4.84 7.931-8.046 1.313-1.991 2.237-4.145 2.695-6.488.277-1.416.211-2.774-.315-4.186-1.998-5.373-3.886-10.787-5.815-16.186.487-.324.8.028 1.127.16 18.302 7.39 36.6 14.789 54.9 22.184 3.202 1.294 6.25 2.848 8.796 5.243 1.822 1.714 3.242 3.682 3.83 6.249.103 1.133.103 2.224.103 3.452-.766 4.44-3.619 7.211-6.978 9.571-3.226 2.266-6.8 3.938-10.254 5.81-9.241 5.01-18.512 9.964-27.772 14.94-7.356 3.952-14.725 7.883-22.072 11.851-8.731 4.715-17.488 9.381-26.211 14.111a2770.648 2770.648 0 0 1-18.311 9.822c-3.685 1.963-7.301 4.079-11.251 5.481-6.163 2.188-12.512 3.324-19.183 3.198h-4.665c-10.456.196-19.969-2.582-28.922-7.708-5.755-3.295-11.667-6.317-17.514-9.45-7.753-4.153-15.49-8.336-23.24-12.497-5.713-3.068-11.423-6.146-17.137-9.214a18449.7 18449.7 0 0 1-23.627-12.708c-6.013-3.241-12.038-6.458-18.061-9.679-3.209-1.715-6.45-3.385-9.186-5.839-2.154-1.931-3.984-4.086-4.55-7.167-.066-1.378-.066-2.666-.066-4.091z"/><path fill="#fff" d="M.295 197.93c.7.36.648 1.231.992 1.907 1.545 3.032 3.91 5.291 6.705 7.106 4.571 2.971 9.493 5.32 14.283 7.899 31.123 16.757 62.287 33.436 93.38 50.249 8.224 4.447 16.972 6.515 26.34 6.937.186.057.239.096.219.202-46.934.066-93.795.062-140.656.092-1.033.001-1.296-.175-1.294-1.271.04-24.328.03-48.655.03-73.121zm147.087 74.174c10.466-.431 20.027-3.355 29.195-8.369 26.799-14.656 53.771-28.992 80.673-43.457 7.126-3.831 14.245-7.673 21.369-11.508 1.995-1.074 3.883-2.306 5.594-3.8 2.303-2.011 4.101-4.361 4.983-7.43.099 24.431.086 48.906.136 73.381.003 1.261-.332 1.404-1.466 1.403-46.714-.033-93.427-.028-140.279-.028-.186-.045-.235-.089-.205-.192z"/><path fill="#B2B2B2" d="M142.519.653c-.102-.107-.085-.232-.084-.295 1.482-.062 2.963-.062 4.581-.062.138 0 .139.126.147.188-1.47.935-3.003.655-4.644.17z"/><path fill="#FFCB00" d="M186.634 161.399c-10.464 3.497-21.134 5.244-31.997 5.946-9.735.63-19.451.386-29.12-.91-12.414-1.665-24.494-4.499-35.471-10.881-4.288-2.492-8.139-5.505-10.82-9.793a19.17 19.17 0 0 1-1.109-2.075c-1.05-2.253-1.253-4.405-.337-6.912 5.307-14.52 10.431-29.107 15.618-43.67.114-.319.122-.69.48-.934 3.345 7.151 9.74 10.558 16.553 13.354 8.062 3.309 16.55 4.871 25.19 5.566 11.981.964 23.844.174 35.509-2.884 4.322-1.132 8.513-2.626 12.504-4.668 6.061-3.101 8.814-5.634 12.255-11.448 1.26 3.513 2.484 6.903 3.693 10.298 4.233 11.882 8.453 23.768 12.704 35.644.384 1.072.398 2.068.106 3.16-1.45 5.412-5.15 9.069-9.476 12.207-4.93 3.577-10.463 5.959-16.282 8zM142.288.561c1.623.004 3.117.022 4.748.013 4.921.312 9.557 1.23 13.832 3.538 3.099 1.674 5.237 4.052 6.433 7.493 4.656 13.393 9.453 26.737 14.262 40.076.414 1.147.234 1.913-.465 2.794-2.776 3.501-6.467 5.685-10.501 7.343-9.535 3.916-19.522 5.024-29.721 4.561-7.29-.33-14.427-1.555-21.236-4.296-4.129-1.662-7.97-3.784-10.898-7.289-.891-1.067-1.127-1.98-.604-3.424a3570.317 3570.317 0 0 0 14.249-40.08c1.34-3.847 4.046-6.16 7.542-7.787 3.876-1.804 7.986-2.655 12.359-2.942z"/></g><defs><clipPath id="a"><path fill="#fff" d="M0 0h289v272H0z"/></clipPath></defs></svg>