<svg xmlns="http://www.w3.org/2000/svg" width="25" height="25" fill="none"><g clip-path="url(#a)"><path fill="#fff" d="M24.332 13.96c0-1.22-.541-2.313-1.394-3.06l.62-1.139a.886.886 0 0 0-.017-.872.812.812 0 0 0-.7-.405h-2.255l-.83-1.708c-.72-1.487-2.153-2.41-3.738-2.41H8.646c-1.585 0-3.017.923-3.739 2.41l-.83 1.708H1.824a.812.812 0 0 0-.7.405.886.886 0 0 0-.017.872l.62 1.139a4.063 4.063 0 0 0 .136 6.238c-.005.02-.012.04-.012.063v2.314c0 .936.727 1.698 1.62 1.698H5.02c.894 0 1.62-.762 1.62-1.698v-1.48h11.386v1.48c0 .936.727 1.698 1.62 1.698h1.549c.893 0 1.62-.762 1.62-1.698V17.2c0-.023-.007-.042-.012-.063a4.069 4.069 0 0 0 1.53-3.178zm-1.491-4.943c.14 0 .216.101.242.145a.346.346 0 0 1 .007.344l-.578 1.062a4.058 4.058 0 0 0-1.172-.532l-.495-1.02h1.996zM5.387 7.008c.631-1.3 1.88-2.109 3.259-2.109h7.372c1.379 0 2.628.808 3.26 2.11l1.407 2.899a4.132 4.132 0 0 0-.428-.023H4.407c-.144 0-.287.008-.428.023l1.408-2.9zM1.574 9.506a.345.345 0 0 1 .007-.344.283.283 0 0 1 .242-.145H3.82l-.495 1.018a4.056 4.056 0 0 0-1.171.533l-.579-1.062zM.865 13.96c0-1.807 1.362-3.3 3.113-3.513h16.708a3.545 3.545 0 0 1 3.113 3.513 3.546 3.546 0 0 1-3.542 3.543H4.407A3.546 3.546 0 0 1 .865 13.96zm5.24 5.555c0 .642-.487 1.165-1.086 1.165H3.47c-.6 0-1.087-.523-1.087-1.165v-2.023a4.046 4.046 0 0 0 2.024.544h1.699v1.479zm16.176 0c0 .642-.488 1.165-1.087 1.165h-1.549c-.6 0-1.087-.523-1.087-1.165v-1.48h1.699a4.04 4.04 0 0 0 2.024-.543v2.023z"/><path fill="#FFCB00" d="M5.96 15.448H3.886a1.557 1.557 0 0 1-1.555-1.556c0-.857.698-1.555 1.555-1.555h2.076a1.557 1.557 0 0 1 0 3.111zM3.886 12.87c-.563 0-.298-.157-.298.407s.511 0 1.075 0l1.504.989c-1.117-.374-3.16-.554-3.16-1.118 0-.563 3.518-.278 2.955-.278H3.885zm16.893 2.578h-2.076a1.557 1.557 0 0 1-1.555-1.556c0-.857.698-1.555 1.555-1.555h2.076a1.557 1.557 0 0 1 0 3.111zm-2.076-2.578c-.564 0-.298-.157-.298.407s.51 0 1.075 0l1.504.989c-1.118-.374-3.16-.554-3.16-1.118 0-.563 3.518-.278 2.955-.278h-2.076z"/><path fill="#FFCB00" d="M20.779 15.448h-2.076a1.557 1.557 0 0 1-1.555-1.556c0-.857.697-1.555 1.555-1.555h2.076a1.556 1.556 0 0 1 0 3.111zm-2.076-2.578a1.023 1.023 0 0 0 0 2.044h2.076a1.023 1.023 0 0 0 0-2.044h-2.076z"/></g><defs><clipPath id="a"><path fill="#fff" d="M.332.79h24v24h-24z"/></clipPath></defs></svg>