<svg xmlns="http://www.w3.org/2000/svg" width="33" height="26" fill="none"><path fill="#000" d="M20.878 15.283c-.12-.005-.238.055-.329.17a.814.814 0 0 0-.16.444.932.932 0 0 0 .023.255c.02.083.05.158.09.224.04.065.087.118.142.156a.35.35 0 0 0 .173.067c7.033.675 10.312 2.719 10.312 3.885 0 1.667-5.77 4.087-14.806 4.087s-14.806-2.42-14.806-4.087c0-.561.934-1.754 4.427-2.815a.393.393 0 0 0 .164-.098.598.598 0 0 0 .125-.182.829.829 0 0 0 .067-.236.928.928 0 0 0-.069-.495.597.597 0 0 0-.126-.182.392.392 0 0 0-.165-.098.318.318 0 0 0-.18.002C2.336 17.388.602 18.765.602 20.484c0 3.508 7.938 5.403 15.722 5.403 7.785 0 15.722-1.833 15.722-5.412 0-3.824-8.548-4.946-11.167-5.192z"/><rect width="2.161" height="18.291" x="19.483" y="19.616" fill="#FFCB00" rx="1.08" transform="rotate(-180 19.483 19.616)"/><path fill="#FFCB00" d="M18.256 2.224a.648.648 0 0 1 1.02-.552l5.268 3.684c.52.364.262 1.182-.373 1.18l-5.152-.018a.649.649 0 0 1-.646-.628l-.117-3.666z"/><rect width="2.161" height="18.291" x="14.162" y="5.294" fill="#000" rx="1.08"/><path fill="#000" d="M15.39 22.686a.648.648 0 0 1-1.02.552l-5.268-3.684c-.52-.364-.262-1.182.373-1.18l5.152.018c.349 0 .634.278.646.628l.117 3.666z"/></svg>