<svg xmlns="http://www.w3.org/2000/svg" width="28" height="27" fill="none"><g clip-path="url(#a)"><path stroke="#000" stroke-linecap="round" stroke-linejoin="round" d="M26.913 5.56a4.803 4.803 0 0 1-.516 2.177 4.871 4.871 0 0 1-4.355 2.693 4.801 4.801 0 0 1-2.177-.516l-3.267 1.089 1.089-3.266a4.802 4.802 0 0 1-.516-2.178 4.871 4.871 0 0 1 2.694-4.355 4.802 4.802 0 0 1 2.177-.516h.287a4.86 4.86 0 0 1 4.584 4.585v.286z"/><path stroke="#FFCB00" stroke-linecap="round" stroke-linejoin="round" d="m22.233 2.503-1.91 2.865h2.865l-1.91 2.865"/><path stroke="#000" d="M24.421 18.213a.944.944 0 0 0 1.224-.899.98.98 0 0 0-.446-.805l-10.33-6.45-.235-.147V2.064c0-.866-.698-1.564-1.565-1.564-.866 0-1.564.698-1.564 1.565v7.847l-.235.146L.937 16.512l-.001.001a.945.945 0 0 0 .783 1.701h.001l9.135-2.862.65-.204v7.469l-.2.15-2.478 1.858-.008.006a.16.16 0 0 0-.067.134v.821c0 .118.12.215.246.18m15.423-7.553zm0 0-9.138-2.862-.649-.204v7.469l.2.15 2.477 1.858.009.006a.16.16 0 0 1 .067.134v.822a.192.192 0 0 1-.245.18m0 0zm0 0-3.935-1.128-.138-.04-.137.04-3.934 1.128m0 0z"/></g><defs><clipPath id="a"><path fill="#fff" d="M0 0h28v27H0z"/></clipPath></defs></svg>