<svg xmlns="http://www.w3.org/2000/svg" width="58" height="81" fill="none"><path fill="#000" d="m57.195 56.363-1.582 3.358a13.079 13.079 0 0 1-4.219 4.74l-7.328 4.976a12.929 12.929 0 0 1-7.3 2.245H22.713l-.555.61.57.659a2.025 2.025 0 0 1 .083 2.55l-3.492 4.61a2.026 2.026 0 1 1-3.23-2.446l2.5-3.303-5.92-6.837a2.026 2.026 0 1 1 3.065-2.653l3.75 4.333.83-.914a2.03 2.03 0 0 1 1.502-.663h14.95a8.895 8.895 0 0 0 5.02-1.545l7.331-4.977a8.964 8.964 0 0 0 2.873-3.2l1.538-3.27a1.157 1.157 0 0 0-.495-1.508 1.994 1.994 0 0 0-2.738.867l-1.468 2.97a2.034 2.034 0 0 1-1.386 1.083l-2.827.615a5.043 5.043 0 0 1-5.043 5.538h-13.25a2.027 2.027 0 0 1 0-4.055h13.25a1.041 1.041 0 0 0 1.018-1.253 1.032 1.032 0 0 0-.303-.531l-.023-.025a1.045 1.045 0 0 0-.565-.261l-8.663-1.067a2.028 2.028 0 0 1-1.128-.523l-.952-.88a5.265 5.265 0 0 0-3.588-1.407h-6.062a5.32 5.32 0 0 0-4.185 2.06l-4.218 5.471c-.053.052-.109.1-.167.145-.04.058-.084.114-.13.168-.06.038-.12.072-.183.103a2.15 2.15 0 0 1-.76.322 1.983 1.983 0 0 1-.229.028 1.964 1.964 0 0 1-1.305-.363c-.021-.016-.048-.018-.07-.035-.02-.016-.03-.042-.05-.06a1.91 1.91 0 0 1-.262-.201L6.441 60.33l-2.528 3.12a2.029 2.029 0 1 1-3.151-2.553l4.052-5.001a2.028 2.028 0 0 1 3.108-.05l1.268 1.465 2.72-3.527a9.398 9.398 0 0 1 7.395-3.64h6.062a9.304 9.304 0 0 1 6.34 2.483l.472.438 8.014.988c.82.118 1.597.437 2.263.928l3.17-.689 1.035-2.094a6.048 6.048 0 0 1 8.309-2.633 5.214 5.214 0 0 1 2.225 6.798zM26.813 24.252l1.662 1.581c1.216 1.135 2.92 2.716 2.92 3.852a2.34 2.34 0 0 1-2.439 2.35 2.336 2.336 0 0 1-2.224-2.553 2.067 2.067 0 0 0-2.66-2.11 1.992 1.992 0 0 0-1.395 1.785c0 .04-.04.487-.04.527a6.344 6.344 0 0 0 4.378 6.042v1.013a2.028 2.028 0 0 0 4.055 0v-1.013a6.344 6.344 0 0 0 4.379-6.042 8.866 8.866 0 0 0-3.487-6.122 11.547 11.547 0 0 0-.73-.689l-1.662-1.581c-1.217-1.135-2.92-2.717-2.92-3.852a2.335 2.335 0 1 1 4.663.203 2.067 2.067 0 0 0 2.659 2.11 1.99 1.99 0 0 0 1.396-1.786c0-.04.04-.486.04-.527a6.343 6.343 0 0 0-4.379-6.04v-1.014a2.027 2.027 0 0 0-4.054 0v1.013a6.343 6.343 0 0 0-4.379 6.041 8.867 8.867 0 0 0 3.487 6.122c.243.244.487.487.73.69zm-20.839-.68a23.028 23.028 0 1 1 23.028 23.027A23.054 23.054 0 0 1 5.974 23.572zm4.055 0A18.972 18.972 0 1 0 29.002 4.598 18.994 18.994 0 0 0 10.03 23.572z"/><circle cx="28.233" cy="21.863" r="17.622" fill="#fff"/><g clip-path="url(#a)"><path fill="#FFCB00" d="M16 11h26v26H16z"/><path fill="#fff" d="M28.137 37.05H16.053v-26c4.01 0 8.023 0 12.049.014-.264.137-.354.366-.353.65.003.712-.006 1.422.007 2.133.004.224-.056.33-.29.376a5.854 5.854 0 0 0-1.692.596c-1.848 1.012-3.05 2.46-3.112 4.668-.05 1.725.682 3.068 2.02 4.107.945.733 2.028 1.212 3.125 1.663 1.087.446 2.193.849 3.213 1.445 1.532.895 1.547 2.733.025 3.643-.96.575-1.992.577-3.045.354-1.288-.273-2.393-.905-3.389-1.75-.329-.28-.526-.258-.789.08-.457.586-.908 1.178-1.355 1.774-.212.282-.2.435.039.695.252.276.552.498.849.722 1.232.931 2.625 1.49 4.139 1.753.205.036.262.12.26.316-.01.66.007 1.32-.007 1.98-.008.34.071.615.39.782z"/><path fill="#fff" d="M30.219 11.05h11.83v26c-3.926 0-7.855 0-11.794-.011.262-.123.354-.337.352-.618-.005-.669-.001-1.337-.001-2.006 0-.401 0-.397.379-.475 1.528-.314 2.783-1.074 3.718-2.33.925-1.244 1.246-2.653 1.018-4.173-.115-.775-.381-1.515-.91-2.118a7.013 7.013 0 0 0-1.964-1.548c-1.068-.575-2.207-.986-3.328-1.438-.884-.357-1.76-.717-2.523-1.332-1.028-.828-.933-2.445.24-3.163.875-.537 1.823-.651 2.808-.523 1.222.158 2.289.691 3.254 1.442.34.263.61.22.817-.143.369-.647.73-1.299 1.086-1.952.154-.283.123-.453-.126-.675a6.811 6.811 0 0 0-1.22-.863c-.933-.521-1.938-.834-2.993-.986-.204-.03-.262-.114-.26-.311.01-.686-.004-1.371.007-2.057.006-.323-.068-.583-.39-.72z"/></g><path stroke="#fff" d="M16.5 11.5h25v25h-25z"/><defs><clipPath id="a"><path fill="#fff" d="M16 11h26v26H16z"/></clipPath></defs></svg>