<svg xmlns="http://www.w3.org/2000/svg" width="135" height="150" fill="none"><path fill="#000" d="M12.626 23.615c18.855-1.894 35.034-8.99 48.458-22.1.795-.777 1.282-1.1 2.27-.187 11.875 10.985 25.833 17.92 42.281 21.16-2.618 3.079-4.94 5.785-7.232 8.517-1.022 1.219-2.15.5-3.247.249-10.886-2.498-21.075-6.72-30.568-12.579-1.572-.97-2.67-1.195-4.389-.149-14.859 9.043-30.864 14.486-48.678 15.11-1.116 2.815-.8 5.52-.396 8.45 1.128 16.271 3.325 32.097 8.85 47.302 5.535 15.238 13.293 29.169 27.052 38.333 15.7 10.457 14.716 10.531 30.171.136 14.382-9.673 22.154-24.422 27.684-40.404 3.867-11.176 6.142-22.717 7.317-34.479.115-1.151-.015-2.382 1.047-3.526 2.84-4.315 6.159-7.867 9.931-11.274.776-.492 1.309-.95 2.131-1.654.504 4.047-.178 7.832-.527 11.594-1.936 20.802-6.303 40.998-15.827 59.775-9.612 18.952-23.45 33.484-43.784 41.094-2.039.763-3.698.708-5.678-.135-21.832-9.288-36.92-25.344-46.491-46.715C2.213 78.043-.789 52.577.52 26.449c.083-1.654-.21-3.881 2.987-2.902 3.102 1.413 5.984.593 9.12.068z"/><path fill="#FFD60A" d="M110.71 47.825c-8.938 9.988-17.635 19.915-26.33 29.844-6.679 7.629-13.385 15.236-20.008 22.913-1.309 1.518-2.273 1.577-3.769.249a7302.203 7302.203 0 0 0-37.414-33.01c-1.62-1.42-2.16-2.423-.367-4.205 2.671-2.656 5.166-5.512 7.528-8.45 1.6-1.988 2.77-1.773 4.568-.218 8.385 7.25 16.924 14.32 25.293 21.587 1.814 1.574 2.768 1.613 4.373-.29C77.588 60.834 90.7 45.513 103.779 30.163c5.736-6.73 11.52-13.423 17.174-20.221 1.46-1.755 2.407-1.946 4.01-.159 2.596 2.895 5.367 5.649 8.223 8.29 1.496 1.382 1.405 2.314.107 3.752-4.024 4.46-7.921 9.032-12.001 13.753-2.754 4.856-6.565 8.507-10.582 12.248z"/><path fill="#F0F6EF" d="M110.669 47.965c3.226-4.036 6.653-7.992 10.284-12.073.892.521 1.58 1.167 2.368 2.03-3.059 3.914-6.219 7.611-9.612 11.338.183-3.082-2.11-.51-3.04-1.294z"/><path fill="#172B43" d="M11.297 41.99c-2.246-2.324-1.373-5.16-.316-8.102.288 2.519.327 5.149.316 8.102z"/><path fill="#17293E" d="M12.59 23.456c-2.503 2.255-5.56 1.043-8.698.466 2.703-.343 5.555-.426 8.699-.466z"/></svg>