<svg xmlns="http://www.w3.org/2000/svg" width="205" height="192" fill="none"><g clip-path="url(#a)"><path fill="#fff" d="M140.544 192.225c-46.16.15-92.312.141-138.464.191-1.502.001-1.715-.356-1.714-1.654C.406 137.917.4 85.072.4 32.051c.805-.249.79.383.9.82 1.71 6.82 5.061 13.017 8.468 19.168 4.734 8.547 10.27 16.648 15.904 24.698 2.763 3.948 6.033 4.704 9.268.021 5.982-8.66 11.875-17.364 16.9-26.54 2.824-5.157 5.46-10.416 7.114-16.067C62.47 22.147 55.19 8.695 43.357 3.54c-2.189-.953-4.403-1.786-6.768-2.251-.514-.101-1.07-.152-1.374-.773C91.388.375 147.542.38 203.696.339c1.435 0 1.746.266 1.744 1.626-.05 36.353-.04 72.706-.04 109.234-1.023.148-.834-.664-.944-1.202-1.46-7.123-4.737-13.424-10.18-18.568-5.934-5.608-13.112-9.184-21.534-10.31-12.352-1.651-23.215 1.562-32.212 9.534-7.202 6.38-11.003 14.43-11.512 23.806-.317 5.824 1.283 11.281 3.318 16.649 5.372 14.17 12.648 27.52 20.193 40.752 3.205 5.621 6.596 11.143 9.925 16.698.757 1.263 1.82 2.296 2.544 3.676-4.316.141-8.596.141-13.062.141-.325-.681.292-.972.646-1.391 2.145-2.533.91-5.64-2.5-6.204-2.231-.37-4.502-.155-6.758-.324-3.311-.248-6.581-.869-9.903-.926-2.65-.046-4.001.955-4.26 2.982-.253 1.99 1.074 3.619 3.472 4.077 1.951.373 3.919.691 5.903.889.714.071 1.487-.026 2.008.747z"/><path fill="#010100" d="M165.143 192.375c-2.88-2.1-4.063-5.168-5.741-7.882-5.609-9.073-10.921-18.308-15.812-27.738-4.594-8.86-9.049-17.784-12.353-27.177-1.941-5.52-3.215-11.087-2.683-16.9.32-3.495 1.327-6.857 2.733-10.13 1.837-4.275 4.414-8.129 7.851-11.353 5.1-4.784 11.13-8.169 18.235-9.866a41.216 41.216 0 0 1 12.688-1.03c7.201.534 13.809 2.806 19.668 6.838 4.624 3.183 8.389 7.061 11.084 11.849 2.181 3.875 3.78 7.904 4.431 12.335.156 2.937.156 5.82.156 8.878-1.126 9.245-5.168 17.422-9.05 25.617-7.174 15.147-15.664 29.663-24.49 44.009-.637 1.036-1.266 2.078-2.773 2.467-1.336.083-2.549.083-3.944.083zM35.047.375c2.96.827 5.81 1.4 8.438 2.666 3.45 1.661 6.661 3.637 9.178 6.39 3.121 3.417 5.387 7.245 6.693 11.689 1.858 6.318.83 12.22-1.676 18.105-4.595 10.795-10.736 20.803-17.414 30.561-1.913 2.796-3.916 5.537-5.79 8.357-2.435 3.666-6.223 3.047-8.361.045-4.358-6.121-8.599-12.313-12.537-18.687-3.52-5.697-6.729-11.54-9.537-17.561-1.486-3.186-2.952-6.43-3.487-10.014C.4 29.367.4 26.86.4 24.176c.46-6.166 3.276-11.18 7.62-15.411C12.742 4.163 18.253.799 25.502.46c3.2-.085 6.278-.085 9.544-.085z"/><path fill="#fff" d="M169.152 192.375c2.511-2.099 3.694-5.167 5.371-7.881 5.606-9.071 10.918-18.303 15.806-27.731 4.592-8.858 9.149-17.748 12.316-27.182 1.005-2.992 2.101-5.957 2.6-9.154.155 23.412.142 46.875.191 70.339.002 1.302-.22 1.661-1.716 1.651-11.459-.077-22.92-.042-34.568-.042z"/><path fill="#000" d="M140.725 192.375c-2.641-.375-5.083-.852-7.551-1.102-4.017-.406-5.86-3.578-3.849-6.793.572-.916 1.397-1.449 2.528-1.474 4.079-.09 8.068.765 12.112 1.033 1.72.114 3.454.047 5.18.089 3.527.088 5.349 1.947 5.03 4.908-.164 1.512-.932 2.48-2.39 3.209-3.649.13-7.261.13-11.06.13z"/><path fill="#fff" d="M25.437.375c-3.256.839-6.707 1.668-9.813 3.376-6.909 3.801-11.778 9.123-14.06 16.422-.386 1.233-.815 2.43-1.008 3.774C.4 16.527.43 9.052.366 1.58.358.517.627.339 1.71.346 9.556.4 17.403.375 25.437.375z"/><path fill="#000" d="M105.601 177.094c-1.735-1.898-3.174-3.828-4.045-6.055-.764-1.955.05-3.773 2.004-4.872 1.456-.82 3.693-.491 5.071.624 1.812 1.468 2.843 3.495 4.245 5.24 1.867 2.323 4.275 3.976 6.679 5.626 2.483 1.705 2.673 4.245 1.345 6.191-1.118 1.639-4.451 2.133-6.375.826-3.224-2.19-6.492-4.358-8.924-7.58zm-10.14-41.64c3.404-1.512 6.831.172 7.073 4.061.288 4.624.779 9.238 1.93 13.767.638 2.508-.513 4.628-2.824 5.361-2.606.827-4.636.13-5.585-2.178-.593-1.442-.945-3.01-1.131-4.551-.478-3.956-1.177-7.888-1.289-11.889-.05-1.797.16-3.316 1.826-4.571zm-4.172-20.628c-.499-2.738-1.32-5.256-1.213-7.914.074-1.824 1.178-3.397 2.775-3.765 2.234-.515 4.183.232 5.268 1.921 1.178 1.835 1.112 3.957 1.508 5.938.752 3.754 1.094 7.581 1.604 11.377.293 2.177-1.513 4.432-3.791 4.74-2.47.334-4.906-1.25-5.292-3.723-.434-2.781-.585-5.6-.86-8.574zM88.06 96.375c-1.735.12-2.849-.474-3.686-1.733-2.613-3.928-6.286-6.875-10.545-9.056-3.433-1.758-3.379-5.983-.009-7.579 1.704-.806 3.18-.332 4.59.378 5.483 2.76 9.918 6.634 13.319 11.507 2.003 2.87.133 6.246-3.669 6.483zM44.484 73.122c.693-.371 1.23-.742 1.908-.74 4.664.007 9.34-.219 13.95.738 3.18.66 3.971 2.717 3.71 4.655-.298 2.212-2.72 3.954-5.225 3.573-3.709-.564-7.426-.755-11.175-.74-2.308.01-4.471-1.622-4.758-3.665-.197-1.407.49-2.686 1.59-3.821z"/><path fill="#fff" d="M193.043 102.738c4.449 7.59 4.665 15.272 1.736 23.25-4.407 12.006-10.264 23.395-16.469 34.639-3.597 6.52-7.391 12.946-11.084 19.391-.315-.114-.489-.124-.535-.202-8.566-14.306-16.803-28.77-23.563-43.923-2.103-4.713-4.241-9.451-5.301-14.482-2.328-11.049 1.566-20.177 10.819-27.034 14.449-10.708 34.518-6.835 44.397 8.361zM50.372 34.052C46.988 43.07 42.055 51.2 36.92 59.23c-2.115 3.308-4.352 6.549-6.644 9.985C22.552 57.5 14.526 46.202 9.992 33.198c-2.651-7.604-.198-14.177 5.855-19.352 8.794-7.52 20.376-7.498 29.053.108 6.156 5.398 8.376 12.164 5.472 20.098z"/><path fill="#FFCB00" d="M177.048 128.371c-6.731 4.58-16.342 3.918-22.186-1.458-6.064-5.577-6.574-14.107-1.137-19.87 4.651-4.929 10.587-6.821 17.59-5.122 6.829 1.656 11.082 5.796 12.281 11.989 1.131 5.846-1.205 10.691-6.548 14.461zm-155.66-91.4c-6.491-6.178-4.403-16.033 3.518-19.402 4.85-2.062 9.53-1.53 13.617 1.727 4.08 3.251 5.454 7.48 4.007 12.294-1.443 4.799-4.93 7.686-10.22 8.582-4.179.707-7.71-.55-10.922-3.201z"/><path fill="#FFCB00" d="M159.298 125.756c-3.065-2.711-4.807-5.702-4.833-9.725-.029-4.378 3.823-9.154 8.075-10.653 7.456-2.628 15.096 1.688 16.677 8.494 1.549 6.673-2.843 12.59-9.941 14.032-3.702.752-6.795-.486-9.978-2.148z"/></g><defs><clipPath id="a"><path fill="#fff" d="M0 0h205v192H0z"/></clipPath></defs></svg>