<svg xmlns="http://www.w3.org/2000/svg" width="154" height="159" fill="none"><path fill="#000" d="m23.502 104.625 2.142-2.32 32.276 29.79-2.142 2.32zM13.153 40.898h3.158V80.01h-3.158zm124.379 0h3.158v37.498h-3.158zm-9.432 59.173 2.233 2.233-31.058 31.058-2.233-2.233z"/><path stroke="#000" stroke-width="5" d="m83.89 39.629-.001 1.099.94.582 41.287 25.614c1.124.754 1.782 1.95 1.781 3.192-.003 2.49-2.528 4.975-4.977 4.225L86.46 62.286l-2.596-.81-.003 2.698-.03 25.908-.002.99.8.596 9.9 7.375.034.025a.636.636 0 0 1 .267.53v.043l-.005 3.217c0 .465-.474.85-.979.711l-15.734-4.49-.55-.157-.552.156-15.741 4.451c-.505.138-.982-.247-.981-.712l.004-3.217v-.042a.631.631 0 0 1 .268-.53l.033-.025 9.919-7.352.8-.593.002-.99.03-25.91.004-2.696-2.6.803-36.553 11.297-.006.002a3.81 3.81 0 0 1-2.643-.172 3.765 3.765 0 0 1-1.883-1.852 3.714 3.714 0 0 1-.19-2.624 3.749 3.749 0 0 1 1.591-2.096l.007-.004 41.36-25.523.941-.58.002-1.1.035-29.998c.004-3.433 2.8-6.197 6.266-6.193 3.465.004 6.255 2.775 6.25 6.208l-.035 29.999z"/><path fill="#FFCB00" d="M101.113 135.321c0 12.971-10.515 23.486-23.486 23.486s-23.486-10.515-23.486-23.486 10.515-23.487 23.486-23.487 23.486 10.516 23.486 23.487zm-43.406 0c0 11.001 8.918 19.92 19.92 19.92 11.002 0 19.92-8.919 19.92-19.92 0-11.002-8.918-19.92-19.92-19.92-11.002 0-19.92 8.918-19.92 19.92z"/><path fill="#FFCB00" d="M65.534 146.947H89.72l5.93 2.514-10.912 5.833-12.32.755-11.615-7.442 4.73-1.66z"/><path fill="#FFCB00" d="M77.793 117.714c-4.546 0-8.264 4.305-8.264 9.611 0 5.305 3.719 9.611 8.264 9.611s8.264-4.306 8.264-9.611c0-5.306-3.719-9.611-8.264-9.611zm-8.636 19.222c-4.38.192-7.893 3.537-7.893 7.689v3.844h33.057v-3.844c0-4.152-3.47-7.497-7.892-7.689-2.231 2.345-5.29 3.844-8.636 3.844-3.347 0-6.405-1.499-8.636-3.844z"/><path fill="#000" d="M29.788 92.983c0 8.098-6.564 14.663-14.663 14.663-8.098 0-14.662-6.565-14.662-14.663 0-8.098 6.564-14.663 14.662-14.663 8.099 0 14.663 6.565 14.663 14.663zm-27.1 0c0 6.869 5.569 12.437 12.437 12.437 6.869 0 12.437-5.568 12.437-12.437 0-6.868-5.568-12.436-12.437-12.436-6.868 0-12.436 5.568-12.436 12.436z"/><path fill="#000" d="M7.576 100.242h15.1l3.702 1.569-6.813 3.642-7.691.471-7.252-4.646 2.954-1.036z"/><path fill="#000" d="M15.229 81.99c-2.838 0-5.16 2.689-5.16 6.001 0 3.312 2.322 6 5.16 6s5.16-2.688 5.16-6-2.322-6-5.16-6zM9.837 93.993c-2.734.12-4.927 2.208-4.927 4.8v2.4h20.638v-2.4c0-2.592-2.167-4.68-4.927-4.8-1.393 1.464-3.302 2.4-5.392 2.4-2.09 0-3.999-.936-5.392-2.4zm143.211-2.732c0 8.098-6.565 14.663-14.663 14.663-8.098 0-14.663-6.565-14.663-14.663 0-8.098 6.565-14.663 14.663-14.663 8.098 0 14.663 6.565 14.663 14.663zm-27.099 0c0 6.869 5.568 12.437 12.436 12.437 6.869 0 12.437-5.568 12.437-12.437 0-6.868-5.568-12.436-12.437-12.436-6.868 0-12.436 5.567-12.436 12.436z"/><path fill="#000" d="M130.835 98.52h15.1l3.702 1.569-6.812 3.642-7.692.471-7.251-4.646 2.953-1.036z"/><path fill="#000" d="M138.489 80.269c-2.838 0-5.16 2.688-5.16 6s2.322 6 5.16 6c2.837 0 5.159-2.688 5.159-6s-2.322-6-5.159-6zm-5.392 12c-2.735.12-4.927 2.209-4.927 4.8v2.401h20.638v-2.4c0-2.592-2.167-4.68-4.928-4.8-1.393 1.464-3.302 2.4-5.391 2.4-2.09 0-3.999-.936-5.392-2.4zm19.951-56.604c0 8.098-6.565 14.663-14.663 14.663-8.098 0-14.663-6.565-14.663-14.663 0-8.098 6.565-14.663 14.663-14.663 8.098 0 14.663 6.565 14.663 14.663zm-27.099 0c0 6.868 5.568 12.437 12.436 12.437 6.869 0 12.437-5.569 12.437-12.437 0-6.869-5.568-12.437-12.437-12.437-6.868 0-12.436 5.568-12.436 12.437z"/><path fill="#000" d="M130.835 42.924h15.1l3.702 1.57-6.812 3.64-7.692.472-7.251-4.647 2.953-1.035z"/><path fill="#000" d="M138.489 24.672c-2.838 0-5.16 2.689-5.16 6.001 0 3.312 2.322 6 5.16 6 2.837 0 5.159-2.688 5.159-6s-2.322-6-5.159-6zm-5.392 12.001c-2.735.12-4.927 2.209-4.927 4.8v2.4h20.638v-2.4c0-2.591-2.167-4.68-4.928-4.8-1.393 1.465-3.302 2.4-5.391 2.4-2.09 0-3.999-.935-5.392-2.4zM29.788 35.665c0 8.098-6.564 14.663-14.663 14.663-8.098 0-14.662-6.565-14.662-14.663 0-8.098 6.564-14.663 14.662-14.663 8.099 0 14.663 6.565 14.663 14.663zm-27.1 0c0 6.868 5.569 12.437 12.437 12.437 6.869 0 12.437-5.569 12.437-12.437 0-6.869-5.568-12.437-12.437-12.437-6.868 0-12.436 5.568-12.436 12.437z"/><path fill="#000" d="M7.576 42.924h15.1l3.702 1.57-6.813 3.64-7.691.472-7.252-4.647 2.954-1.035z"/><path fill="#000" d="M15.229 24.672c-2.838 0-5.16 2.689-5.16 6.001 0 3.312 2.322 6 5.16 6s5.16-2.688 5.16-6-2.322-6-5.16-6zM9.837 36.673c-2.734.12-4.927 2.209-4.927 4.8v2.4h20.638v-2.4c0-2.591-2.167-4.68-4.927-4.8-1.393 1.465-3.302 2.4-5.392 2.4-2.09 0-3.999-.935-5.392-2.4z"/></svg>