<svg xmlns="http://www.w3.org/2000/svg" width="107" height="115" fill="none"><rect width="3.446" height="34.775" x="9.787" y="79.448" fill="#FFCB00" rx="1.723" transform="rotate(.068 9.787 79.448)"/><rect width="3.446" height="23.929" x="15.787" y="79.456" fill="#FFCB00" rx="1.723" transform="rotate(.068 15.787 79.456)"/><path stroke="#000" stroke-width="5" d="m59.856 39.48-.001 1.099.94.583 41.287 25.613c1.124.755 1.782 1.95 1.781 3.193-.003 2.49-2.528 4.974-4.977 4.224l-36.46-12.054-2.596-.81-.003 2.697-.031 25.908-.001.991.8.596 9.9 7.375.034.025a.636.636 0 0 1 .267.53v.042l-.005 3.218c0 .465-.474.85-.979.711l-15.734-4.49-.55-.157-.552.156-15.741 4.451c-.505.137-.982-.247-.981-.712l.004-3.218v-.041a.633.633 0 0 1 .267-.53l.034-.025 9.919-7.352.8-.594.002-.99.03-25.909.004-2.697-2.6.804L8.162 73.414c-.002 0-.004 0-.007.002-.872.26-1.81.199-2.642-.172a3.765 3.765 0 0 1-1.884-1.853 3.714 3.714 0 0 1-.19-2.623 3.75 3.75 0 0 1 1.592-2.096l.007-.004 41.36-25.523.941-.58.002-1.1.035-29.999c.004-3.433 2.8-6.197 6.266-6.192 3.465.004 6.255 2.774 6.25 6.207l-.035 30z"/><rect width="3.446" height="14.912" x="21.787" y="79.463" fill="#FFCB00" rx="1.723" transform="rotate(.068 21.787 79.463)"/><rect width="3.446" height="14.912" x="82.799" y="77.95" fill="#FFCB00" rx="1.723" transform="rotate(.068 82.799 77.95)"/><rect width="3.446" height="34.775" x="93.677" y="77.962" fill="#FFCB00" rx="1.723" transform="rotate(.068 93.677 77.962)"/><rect width="3.446" height="23.929" x="88.238" y="77.956" fill="#FFCB00" rx="1.723" transform="rotate(.068 88.238 77.956)"/></svg>