<svg xmlns="http://www.w3.org/2000/svg" width="240" height="169" fill="none"><path fill="#252525" fill-rule="evenodd" d="M.468.617a63.834 63.834 0 0 0 12.684 7.674 119.43 119.43 0 0 0 23.756 7.099 241.03 241.03 0 0 0 21.284 3.132c5.119.476 10.243.894 15.372 1.253 18.014 1.926 33.474 8.973 46.383 21.141 12.952-12.16 28.448-19.206 46.491-21.141a302.6 302.6 0 0 0 32.786-3.654 151.986 151.986 0 0 0 20.854-5.22c7.106-2.31 13.539-5.738 19.295-10.284-.002.32-.073.634-.215.94a1387.499 1387.499 0 0 0-8.17 22.237c-2.4 5.799-5.929 10.828-10.588 15.086-4.17 3.503-9.007 5.627-14.511 6.37a2.817 2.817 0 0 1-1.075 0c9.014-4.852 14.944-12.108 17.79-21.769a34.134 34.134 0 0 0 1.021-5.116 107.026 107.026 0 0 1-22.359 6.63 82.657 82.657 0 0 1-7.417.94c-4.443.246-8.885.49-13.329.73a243.305 243.305 0 0 0-19.886 2.61c-9.779 1.74-18.701 5.395-26.766 10.963a79.091 79.091 0 0 0-8.331 6.63.473.473 0 0 0 .107.417c6.541 8.152 10.591 17.374 12.147 27.666 3.066 18.885 2.26 37.607-2.418 56.169a42.507 42.507 0 0 1-5.16.052 142.653 142.653 0 0 0 2.526-18.427c.723-7.298.903-14.606.538-21.924-.449-9.453-2.634-18.5-6.558-27.145a56.066 56.066 0 0 0-6.772-10.753c-6.2 8.01-10.177 16.989-11.932 26.936a105.087 105.087 0 0 0-1.397 24.743 199.912 199.912 0 0 0 3.064 26.622h-5.16c-5.007-20.109-5.526-40.328-1.559-60.657 2.017-8.649 5.815-16.444 11.395-23.386a.254.254 0 0 0 0-.314c-7.67-7.123-16.574-12.326-26.713-15.608a78.605 78.605 0 0 0-8.922-2.088 247.901 247.901 0 0 0-19.348-2.505c-4.84-.244-9.677-.523-14.512-.836-9.936-1.05-19.449-3.573-28.54-7.569 1.377 10.306 6.34 18.536 14.888 24.691a53.25 53.25 0 0 0 3.87 2.297c-4.304-.268-8.281-1.521-11.932-3.758-4.568-2.94-8.205-6.717-10.91-11.328a69.403 69.403 0 0 1-3.333-6.473A1774.556 1774.556 0 0 0 .468.617z" clip-rule="evenodd" opacity=".991"/><path fill="#252525" fill-rule="evenodd" d="M99.04 6.882c14.046-.018 28.091 0 42.138.052 1.148.35 1.846 1.098 2.096 2.245.29 4.178.487 8.354.591 12.528-8.954 3.797-16.927 8.983-23.917 15.556-6.908-6.618-14.845-11.768-23.81-15.452.245-4.211.513-8.423.806-12.632.27-1.149.968-1.914 2.096-2.297z" clip-rule="evenodd" opacity=".996"/><path fill="#FFA900" fill-rule="evenodd" d="M128.049 11.843v.105h-5.59V6.937h5.59v4.906z" clip-rule="evenodd"/><path fill="#FFA900" fill-rule="evenodd" d="M122.64 11.843v5.012h-5.482v-4.907h-5.482v4.907h-5.483v-4.907c1.811.034 3.602 0 5.375-.105V6.937h5.697v4.906h5.375zm16.374 0v.105h-5.482v4.907h-5.482v-5.012h5.374V6.937h5.59v4.906z" clip-rule="evenodd"/><path fill="#FFA900" fill-rule="evenodd" d="M100.53 11.843v.105h5.482v4.907h5.483v-5.012h-5.375V6.937h-5.59v4.906zm38.605-.166h3.655c-.026.134.01.239.107.313.108 1.564.18 3.13.215 4.698h-3.977v-5.011zm-38.719 0h-3.655c.026.134-.011.239-.108.313-.107 1.564-.18 3.13-.215 4.698h3.978v-5.011z" clip-rule="evenodd"/><path fill="#252525" fill-rule="evenodd" d="M18.848 47.284c4.28 2.627 8.956 4.02 14.028 4.176 3.1-.24 6.198-.483 9.299-.73 4.364.097 8.341 1.332 11.931 3.706a80.321 80.321 0 0 0-7.202-.47c-1.58.032-3.156.12-4.73.261-2.761.406-5.52.824-8.276 1.253-3.541.095-6.73-.88-9.567-2.923a25.919 25.919 0 0 1-5.483-5.273zm202.09 0a.267.267 0 0 1 .215.052 26.176 26.176 0 0 1-8.707 6.995 14.376 14.376 0 0 1-6.449 1.149 221.85 221.85 0 0 1-7.31-1.149 48.62 48.62 0 0 0-7.417-.313c-1.835.1-3.662.238-5.482.418 3.593-2.375 7.571-3.611 11.932-3.706 3.1.247 6.199.49 9.298.73 5.062-.125 9.701-1.517 13.92-4.176zM57.117 58.038a18.49 18.49 0 0 1 8.492 1.357 40.126 40.126 0 0 0-11.501 3.08 73.812 73.812 0 0 1-4.73 2.297c-3.025.996-6 .857-8.922-.418a25.65 25.65 0 0 1-6.235-3.863c2.57.85 5.221 1.32 7.955 1.41a20.553 20.553 0 0 0 5.697-.888c2.173-.829 4.36-1.63 6.557-2.401.9-.238 1.796-.43 2.687-.574z" clip-rule="evenodd" opacity=".977"/><path fill="#252525" fill-rule="evenodd" d="M179.445 58.04a17.8 17.8 0 0 1 7.095.887 82.994 82.994 0 0 0 6.235 2.297c4.347 1.067 8.61.806 12.791-.783l.108.104c-2.747 2.326-5.899 3.909-9.46 4.75a11.146 11.146 0 0 1-5.697-.522l-5.16-2.505a41.752 41.752 0 0 0-11.071-2.871 20.167 20.167 0 0 1 5.159-1.358z" clip-rule="evenodd" opacity=".975"/><path fill="#252525" fill-rule="evenodd" d="M75.82 61.171c1.148-.017 2.295 0 3.44.052a9.635 9.635 0 0 1 2.258.47c-4.64 1.21-8.832 3.245-12.577 6.108-2.433 1.283-4.978 1.526-7.632.73a20.395 20.395 0 0 1-5.59-2.61c2.673.57 5.36.604 8.063.105.996-.23 1.963-.543 2.902-.94l5.59-2.923a19.272 19.272 0 0 1 3.547-.992z" clip-rule="evenodd" opacity=".971"/><path fill="#252525" fill-rule="evenodd" d="M160.636 61.172c2.418-.24 4.748.091 6.987.991l5.374 2.82c3.583 1.527 7.274 1.822 11.072.887l.108.104c-2.391 1.638-5.042 2.63-7.955 2.975a9.228 9.228 0 0 1-5.052-1.043 53.815 53.815 0 0 0-6.88-4.177 45.433 45.433 0 0 0-5.912-2.035c.756-.217 1.508-.39 2.258-.523z" clip-rule="evenodd" opacity=".972"/><path fill="#FFA900" fill-rule="evenodd" d="M106.028 136.758c1.63-.104 3.278-.139 4.945-.104a69.897 69.897 0 0 0 1.505 5.585 35.226 35.226 0 0 1-4.676-.052 455.425 455.425 0 0 1-1.774-5.429z" clip-rule="evenodd" opacity=".976"/><path fill="#FFA900" fill-rule="evenodd" d="M129.032 136.653h4.837a248.849 248.849 0 0 1-1.72 5.638h-4.622l1.505-5.638z" clip-rule="evenodd" opacity=".975"/><path fill="#FFA900" fill-rule="evenodd" d="M109.895 147.825c1.46-.033 2.911.001 4.353.105a141.88 141.88 0 0 0 5.697 14.094 136.253 136.253 0 0 0 5.751-14.094 31.03 31.03 0 0 1 4.408-.052 150.613 150.613 0 0 1-10.105 20.724 122.583 122.583 0 0 1-10.104-20.777z" clip-rule="evenodd" opacity=".981"/></svg>