<svg xmlns="http://www.w3.org/2000/svg" width="33" height="24" fill="none"><path fill="#fff" fill-rule="evenodd" d="M.307.79c.523.414 1.09.765 1.702 1.05a15.78 15.78 0 0 0 3.187.972c.945.186 1.897.33 2.855.429.687.065 1.374.122 2.062.171 2.417.264 4.49 1.23 6.223 2.895 1.737-1.665 3.816-2.63 6.236-2.895a39.805 39.805 0 0 0 4.399-.5c.95-.17 1.882-.41 2.797-.715A8.208 8.208 0 0 0 32.357.79c0 .044-.01.087-.03.13a191.54 191.54 0 0 0-1.095 3.044 5.744 5.744 0 0 1-1.42 2.065 3.71 3.71 0 0 1-1.947.872.366.366 0 0 1-.145 0c1.21-.664 2.005-1.657 2.387-2.98.063-.23.109-.464.137-.7a14.14 14.14 0 0 1-3 .907c-.33.058-.66.101-.994.129l-1.789.1c-.894.082-1.783.2-2.667.357a8.932 8.932 0 0 0-3.591 1.501c-.392.277-.765.58-1.118.908-.004.02 0 .04.015.057a7.902 7.902 0 0 1 1.63 3.788 19.19 19.19 0 0 1-.325 7.69 5.59 5.59 0 0 1-.692.008c.166-.834.28-1.674.339-2.523.097-1 .12-2 .072-3.002a10.238 10.238 0 0 0-.88-3.717 7.708 7.708 0 0 0-.908-1.472 8.378 8.378 0 0 0-1.601 3.688 14.678 14.678 0 0 0-.188 3.388c.058 1.224.195 2.44.411 3.645h-.692a19.328 19.328 0 0 1-.209-8.305 7.988 7.988 0 0 1 1.529-3.202.035.035 0 0 0 0-.043 9.454 9.454 0 0 0-3.584-2.137 10.367 10.367 0 0 0-1.197-.286c-.86-.15-1.725-.263-2.595-.343-.65-.033-1.298-.072-1.947-.114a12.599 12.599 0 0 1-3.829-1.037c.185 1.411.85 2.538 1.998 3.38.168.113.34.218.519.315a3.377 3.377 0 0 1-1.6-.514 4.538 4.538 0 0 1-1.465-1.551 9.577 9.577 0 0 1-.447-.886A211.585 211.585 0 0 0 .307.789z" clip-rule="evenodd" opacity=".991"/><path fill="#fff" fill-rule="evenodd" d="M13.531 1.647c1.884-.002 3.768 0 5.653.007.154.048.247.15.28.308.04.572.066 1.143.08 1.715a10.78 10.78 0 0 0-3.208 2.13 10.128 10.128 0 0 0-3.194-2.116c.033-.576.069-1.153.108-1.73a.41.41 0 0 1 .281-.314z" clip-rule="evenodd" opacity=".996"/><path fill="#FFCB00" fill-rule="evenodd" d="M17.422 2.327v.014h-.75v-.686h.75v.672z" clip-rule="evenodd"/><path fill="#FFCB00" fill-rule="evenodd" d="M16.697 2.327v.686h-.736V2.34h-.735v.672h-.736V2.34c.243.005.484 0 .721-.014v-.672h.765v.672h.72zm2.196 0v.014h-.735v.672h-.735v-.687h.72v-.672h.75v.672z" clip-rule="evenodd"/><path fill="#FFCB00" fill-rule="evenodd" d="M13.731 2.327v.014h.736v.672h.735v-.687h-.721v-.672h-.75v.672zm5.179-.023h.49c-.003.018.001.032.014.042.015.215.024.429.03.644h-.534v-.686zm-5.195 0h-.49c.004.018-.001.032-.014.042-.015.215-.024.429-.03.644h.534v-.686z" clip-rule="evenodd"/><path fill="#fff" fill-rule="evenodd" d="M2.773 7.18c.574.359 1.202.55 1.882.57.416-.032.832-.065 1.247-.1a2.922 2.922 0 0 1 1.601.508c-.32-.036-.643-.057-.966-.064a8.956 8.956 0 0 0-.635.036c-.37.055-.74.112-1.11.171a2.016 2.016 0 0 1-1.283-.4 3.51 3.51 0 0 1-.736-.722zm27.111 0c.01-.003.02 0 .029.006-.32.404-.71.723-1.168.958-.276.12-.565.173-.866.157a29.799 29.799 0 0 1-.98-.157 6.392 6.392 0 0 0-.995-.043c-.246.014-.491.033-.735.057a2.92 2.92 0 0 1 1.6-.507l1.248.1a3.553 3.553 0 0 0 1.867-.572zM7.907 8.651a2.44 2.44 0 0 1 1.139.186 5.297 5.297 0 0 0-1.543.422 9.82 9.82 0 0 1-.635.314 1.596 1.596 0 0 1-1.196-.057 3.428 3.428 0 0 1-.837-.529c.345.117.7.181 1.067.193.261-.004.516-.044.765-.121.291-.114.584-.223.88-.329.12-.033.24-.059.36-.079z" clip-rule="evenodd" opacity=".977"/><path fill="#fff" fill-rule="evenodd" d="M24.317 8.652a2.33 2.33 0 0 1 .952.121c.274.116.553.221.837.315a2.77 2.77 0 0 0 1.716-.108l.014.015a2.982 2.982 0 0 1-1.269.65c-.261.044-.516.02-.764-.071l-.693-.343a5.51 5.51 0 0 0-1.485-.394c.224-.093.455-.155.692-.185z" clip-rule="evenodd" opacity=".975"/><path fill="#fff" fill-rule="evenodd" d="M10.416 9.08c.154-.002.308 0 .461.008.104.009.205.03.303.064a4.662 4.662 0 0 0-1.687.836 1.287 1.287 0 0 1-1.024.1c-.27-.08-.52-.2-.75-.357.359.078.72.083 1.082.014.133-.031.263-.074.39-.128l.749-.4c.156-.062.315-.107.476-.136z" clip-rule="evenodd" opacity=".971"/><path fill="#fff" fill-rule="evenodd" d="M21.794 9.08c.325-.032.637.013.937.136l.721.386c.481.21.976.25 1.486.121l.014.015a2.32 2.32 0 0 1-1.067.407 1.22 1.22 0 0 1-.678-.143 7.199 7.199 0 0 0-.923-.572 6.011 6.011 0 0 0-.793-.278c.102-.03.203-.054.303-.072z" clip-rule="evenodd" opacity=".972"/><path fill="#FFCB00" fill-rule="evenodd" d="M14.468 19.43c.219-.015.44-.02.664-.015.057.258.124.513.202.765-.21.012-.42.01-.628-.007l-.238-.743z" clip-rule="evenodd" opacity=".976"/><path fill="#FFCB00" fill-rule="evenodd" d="M17.554 19.415h.65c-.075.258-.152.515-.231.772h-.62l.201-.772z" clip-rule="evenodd" opacity=".975"/><path fill="#FFCB00" fill-rule="evenodd" d="M14.987 20.945c.196-.005.39 0 .584.014.22.657.476 1.3.764 1.93.293-.629.55-1.272.772-1.93.197-.017.394-.019.591-.007-.38.98-.832 1.926-1.355 2.837a16.922 16.922 0 0 1-1.356-2.844z" clip-rule="evenodd" opacity=".981"/></svg>