<svg xmlns="http://www.w3.org/2000/svg" width="3816" height="1038" fill="none"><path fill="#001D3D" d="M3814.95 1036.54c-21.43 1-42.76 1.15-64.1 1.15-1228.3.01-2456.6.01-3684.909.01-20.999 0-41.998-.11-63.925-.2C.989 1012.95 1.003 988.454.7 963.958c-.062-5.045 2.01-6.052 6.493-5.991 13.241.178 26.487-.014 40.645-.205 9.507-5.44 19.018-2.687 28.114-3.024 13.558-.504 13.52-.467 14.017-14.02.434-11.82-2.084-23.824 2.487-36.164.612-17.262.614-33.81.73-50.358.047-6.843.158-6.983 7.247-7.009 24.161-.086 48.323-.065 73.388-.27 15.379-4.852 21.484-2.517 24.071 9.645.538 35.269.052 69.572.24 103.873.074 13.618.524 14.071 13.987 14.122 14.654.055 29.308.058 43.962-.001 13.128-.053 13.665-.531 13.71-13.346.086-24.312-.055-48.625.057-72.938.073-15.966 1.734-17.599 17.928-17.669 24.979-.108 49.958.012 74.937-.05 13.617-.034 13.617-.096 16.407-13.973 3.628-14.086 12.81-16.532 25.139-16.236 28.175.677 56.377.19 84.568.235 4.954.008 9.976-.414 15.578 1.966 4.049 4.474 3.621 9.266 3.661 13.883.138 15.654.258 31.314-.031 46.962-.148 8.014 2.735 11.321 11.02 11.275 39.969-.22 79.941-.198 119.91-.013 8.355.038 10.897-3.517 10.962-11.408.133-15.961-1.259-31.966 1.223-48.804 1.53-3.264 2.746-5.574 3.22-8.272 1.38-7.852 6.737-11.329 14.151-11.368 71.439-.377 142.879-.554 214.318.072 1.324.012 2.617.435 4.726 1.242 2.877 1.902 3.467 4.139 3.958 6.45 2.573 12.091 2.58 12.099 15.287 12.138 6.662.02 13.344-.32 19.981.082 8.089.489 11.359-2.657 11.292-10.941-.093-11.621-1.19-23.315 1.267-35.749 3.965-14.609 13.573-17.822 26.754-17.671 43.906.501 87.826.204 131.736.17 8.18-.006 15.98.848 22.93 7.478 3.98 5.77 3.14 11.563 3.15 17.151.07 49.909.03 99.818.04 149.726 0 17.776.01 17.779 18.25 17.783 13.97.004 27.95.013 41.92-.003 16.36-.018 16.49.005 20.9-16.175 10.15-37.235 20.17-74.504 30.53-111.679 1.34-4.797 2.47-9.709 6.57-14.262 6.01-4.551 12.06-5.691 18.55-5.7 65.1-.085 130.2-.522 195.29-.391 8.42.017 15.88 1.428 21.4 9.803 2.09 3.445 2.32 6.43 2.58 9.428 1.1 12.701 1.11 12.823 13.4 12.858 29.98.084 59.96.091 89.94-.005 11.72-.037 12.3-.785 12.6-12.468.14-5.294-.56-10.698 2.4-16.487 4.76-3.442 9.49-3.086 14.09-3.096 29.83-.067 59.65-.076 89.47.001 5.62.014 11.34-.204 17.03 3.867 3.81 5.457 3.21 10.891 3.22 16.159.07 37.558.01 75.115.05 112.673.01 14.515 5.62 18.575 19.84 14.942 4.03-1.028 5.28-3.526 5.57-7.122.43-5.31.23-10.63.23-15.946.02-38.887-.01-77.774.04-116.661 0-5.287-.53-10.668 2.23-16.541 4.98-3.903 10.09-3.393 15.03-3.397 83.52-.057 167.03-.054 250.55-.019 6.67.002 13.33.217 20.36 3.625 4.8 4.968 3.99 10.502 4.02 15.743.13 23.656-.01 47.313.08 70.969.06 12.591 6.27 16.84 18.55 13.37 5.38-1.518 5.04-5.646 5.11-9.518.24-13.992.04-27.987.12-41.981.03-4.649-.29-9.353 1.97-14.642 6.4-5.774 13.46-7.382 20.92-7.408 51.19-.18 102.38-.094 153.57-.076 6.98.003 13.12 1.79 18.66 7.658 3.6 5.54 2.99 10.977 3 16.261.07 35.652-.02 71.304.07 106.956.02 12.289.82 13.026 13 13.155 6.66.071 13.32.104 19.98-.117 5.64-.186 8.6-2.794 8.7-8.574.26-14.326.18-28.651.05-42.977-.04-3.904-1.45-6.913-4.83-9.265-4.16-2.898-4.6-6.737-.23-9.702 4.58-3.106 5.13-7.406 5.14-12.199.02-17.659.07-35.319-.04-52.978-.02-3.298-.21-6.477-2.62-9.333-7.7-9.091-7.38-9.846 5.43-13.912 6.18-1.183 11.52-1.001 16.84-1.003 52.56-.018 105.13-.024 157.69.008 5.97.003 12-.399 18.71 1.949 1.45.763 2 1.124 3.23 2.19 1.75 2.393 2.24 4.262 2.53 7.164.81 22.173.16 43.415.44 64.651.15 11.383 1.91 13.275 13.16 13.926 7.95.461 15.93.237 23.89.15 11.58-.128 12.61-1.038 12.69-12.453.15-23.565.01-47.131.07-70.696.01-4.962-.36-9.979 1.82-15.631 4.13-5.146 9.23-5.211 14.2-5.219 85.38-.129 170.76-.131 256.14-.013 5.02.007 9.97.519 14.99 4.062 5.14 4.283 4.79 9.53 4.52 14.405-.43 7.542 3.15 11.262 9.82 14.121 25.96 11.131 51.72 22.748 77.51 34.286 10.38 4.643 10.96 4.001 11.43-7.062.52-12.545-1.96-25.25 2.38-38.356 5.43-10.521 13.48-13.651 24.22-13.634 115.74.189 231.48.101 347.22.143 6.67.003 13.32.292 20.29 3.848 4.34 5.201 3.61 10.688 3.64 15.948.11 23.315-.06 46.631.09 69.946.07 11.235.96 12.185 11.82 12.227 30.64.12 61.28.129 91.93-.004 10.8-.047 10.89-.958 12.02-12.255 2.55-25.59 1.68-51.226 1.9-76.852.04-4.317-.18-8.688 2.27-13.557 4.69-3.642 9.45-3.319 14.07-3.323 59.23-.062 118.45-.056 177.68-.016 3.32.002 6.66.021 10.75 1.389 6.04 3.179 6.41 8.368 7.08 13.269 2.81 20.439 6.3 40.775 9.32 62.078 2.63 15.315 4.61 29.838 6.56 44.354 1.11 8.288 5.18 11.33 13.27 11.2 15.98-.256 31.97-.127 47.96-.038 4.29.024 8.7-.456 13.36 2.458 14.63.639 28.57.715 42.51.827 8.33.067 8.44.092 8.45 7.84.03 21.911-.04 43.818-.17 66.648z"/><path fill="#001D3D" fill-opacity=".85" d="M1495.91 317.105c23.53.969 46.17.031 68.79.333 2 .026 4 .003 5.99.003 13.26.003 13.26.003 13.79 12.852.28 6.905.28 6.922 7.51 7.124 2.33.065 4.66-.051 6.99.028 3.32.112 6.96-.476 9.85.713 3.3 1.354 1.45 5.34 1.92 8.151.42 2.539 2.04 3.185 4.22 3.211 3 .035 6.01-.132 8.99.103 2.65.209 6.9-1.26 6.63 3.473-.25 4.501-4.43 2.798-7.09 3.071-2.64.271-5.33.15-7.99.079-3.34-.088-4.88 1.476-4.81 4.787.04 2.329-.02 4.661-.02 6.991-.03 33.96-.06 67.921-.29 102.799-3.95 4.612-8.8 4.057-13.37 4.062-79.74.087-159.49.078-239.23.024-3.98-.003-8.01.098-12.42-2.537-2.08-4.217-1.47-7.916-1.47-11.542-.05-30.943-.02-61.885-.01-92.828 0-2.329-.05-4.658-.03-6.986.03-3.343-1.68-4.757-4.94-4.703-3.66.062-7.32.034-10.98-.05-2.36-.053-4.9-.081-4.69-3.56.21-3.452 2.88-3.051 5.12-3.118 2.99-.091 6.01-.24 8.98.014 4.54.388 7.13-1.051 6.53-6.025-.58-4.851 1.59-6.544 6.31-6.24 4.64.299 9.32-.127 13.97.106 4.4.221 6.08-1.746 5.72-5.914-.03-.33-.01-.666.01-.998.58-13.127.58-13.118 13.32-13.128 37.27-.032 74.53-.07 112.7-.295zm644.47 1.851c-64.61.804-129.02.789-194.36.775-1.75-4.521-2.53-8.959 4.58-8.255 2.96.294 4.19-1.367 4.16-4.195-.02-2.328.02-4.657.02-6.985.01-39.921 0-79.842.05-119.762.01-8.092.12-8.167 8.25-8.218 11.64-.072 23.29-.191 34.93.056 5.03.106 7.07-1.356 6.92-6.762-.35-12.631-.16-25.28-.08-37.921.05-7.758.14-7.758 7.45-7.941.33-.009.67.027 1-.006 5.84-.588 13.26 2.622 17.15-1.701 3.4-3.768.95-10.848 1.08-16.46.16-6.65.41-13.332-.06-19.952-.42-5.956 2.79-6.577 8.12-6.219 1.86-.585 2.96-.8 4.9-.242 8.46.779 8.53.778 8.59 7.649.07 9.304-.02 18.61.03 27.915.05 8.943.09 8.951 9.43 9.009 3.66.023 7.33.251 10.96-.054 5.09-.428 7.1 1.361 6.97 6.702-.31 12.289-.13 24.59-.08 36.886.04 8.947.09 8.978 9.38 9.013 9.97.038 19.94.001 29.91.011 12.06.013 10.94-.753 10.95 10.542.02 38.882.02 77.765.03 116.647 0 1.994.09 3.993-.01 5.981-.21 3.777.43 6.595 5.27 6.103 5.21-.53 4.83 3.147 4.46 7.384zm983.52 117.323c-.81-3.526-1.1-6.511-1.1-9.496-.02-53.661-.01-107.321 0-160.982v-1c.04-10.224-.85-9.393 9.96-9.403 27.66-.026 55.33.013 82.99-.02 12.37-.015 11.01 1.085 11.05-11.441.05-17.998.02-35.996.03-53.994.01-2.33.04-4.663.17-6.989.08-1.404.66-2.548 2.31-2.657 1.96-.129 3.19.732 3.31 2.742.13 2.326.15 4.66.15 6.991.02 19.664-.04 39.329.06 58.993.03 5.979 2.15 7.382 8.01 6.342 2.43-.43 3.45-1.708 3.5-3.98.06-2.665.06-5.332.06-7.998.02-38.995-.02-77.991.13-116.986.02-2.941-2.1-8.271 2.21-8.433 5.4-.203 3.14 5.47 3.15 8.54.18 38.328.13 76.657.14 114.986.01 2.333-.06 4.669.03 6.999.24 6.185 4.71 8.914 10.7 6.697 1.94-.719 2.27-2.206 2.32-3.885.08-2.331.06-4.666.06-6.999.01-26.33-.08-52.661.13-78.99.03-3.184-2.21-8.914 2.6-9.111 5.48-.224 2.9 5.643 2.93 8.654.25 26.994.16 53.992.16 80.989.01 9.457-.84 9.583 8.96 9.584 8.78 0 8.87.153 8.87 8.497.01 56.66-.01 113.32-.22 170.899-11.72 6.189-23.51 4.29-35.16 1.862-5.32-1.107-6.91-5.733-7.19-10.753-.38-6.98-.28-13.969-.17-20.947.1-6.262-1.8-10.355-8.85-10.418-8.78-.08-11.15-5.53-11.14-13.203.01-9.185-.01-18.37-.04-27.557-.23 9.515.01 19.035-.2 28.549-.12 5.268-1.27 9.939-6.78 12.215-3.66 1.514-5.57 4.611-7.03 8.037-3.74 8.79-10.56 12.287-19.84 12.056-5.65-.14-11.31.094-16.96.007-6.16-.095-8.76 2.628-9.42 8.839-1.26 11.776-3.95 14.336-15.59 14.853-7.88.349-15.95 1.705-24.3-2.089z"/><path fill="#001D3D" fill-opacity=".85" d="M1344.35 472.601c88.21-.886 176.14-.874 264.96-.862 1.04 21.818 1.25 43.634 1.35 65.45.06 12.237-.05 24.473-.27 37.631-88.16.921-176.13.92-264.93.94-1.06-1.603-1.51-3.228-1.51-4.852.01-32.47.07-64.939.4-98.307zm963.44 35.651c-1.15-4.791-4.43-4.38-7.32-4.674-1.79-.182-3.12-1.092-3-3.083.08-1.443 1.08-2.437 2.51-2.529 7.02-.452 7.16-5.35 7-10.555-.14-4.902-.16-9.808-.37-15.692-.17-16.96-.15-32.939-.25-48.917-.05-7.573-.15-7.665-7.58-7.978-3.68-.155-7.35.384-8.06-4.876-.27-1.952-2.85-1.126-4.19-1.84-3.32-1.77-3.93-15.427-.75-16.92 1.41-.66 3.26-.473 4.91-.486 5.99-.05 11.99-.002 17.98-.027 10.08-.043 10.1-.055 9.97-10.576-.05-3.494.68-6.957-3.27-9.592-2.25-1.504-1.31-4.217 1.94-4.658 1.63-.223 3.32-.113 4.98-.113 19.98-.006 39.96-.007 59.93-.001 1.66 0 3.35-.088 4.99.124 3.24.42 4.35 3.178 1.96 4.622-7.55 4.571-2.5 11.363-3.68 16.974-.42 1.937 1.39 2.841 3.15 3.082 1.31.18 2.66.135 3.99.132 30.29-.054 60.59-.116 91.8-.497 2.71-2.238 5.03-2.909 8.48-3.156 7.17-.522 13.43-.387 19.68-.211 12.36.347 14.72 2.91 14.58 16.307-.55 1.962-1.05 2.979-2.24 4.52-4.85 4.107-8.75 8.075-14.82 8.932-5.63.797-4.28 5.71-4.46 10.277.03 1.8.03 2.84.07 4.692.07 1.362.11 1.911.18 3.294-.04 16.102.24 31.374-.09 46.635-.15 6.67 1.11 12.448 6.34 17.938.21 1.431.19 2.017-.15 3.431-3.38 3.928-8.05 3.73-12.31 6.455-56.69-1.149-112.5.033-168.29-.488-7.6-.071-15.21 1.746-23.61-.546z"/><path fill="#001D3D" d="M2492.55 389.471c-2.42.337-4.16.349-6.55.37 1.92-13.783 6.14-27.099 11.76-39.911 2.11-4.828 1.12-6.899-3.51-9.073-5.72-2.681-9.95-4.821-15.45 1.487-5.31 6.1-15.68 5.485-22.06.711-6.57-4.916-9.03-13.868-5.89-21.444 3.2-7.721 11.35-12.477 19.22-11.215 8.79 1.409 14.59 7.82 15.54 16.984.26 2.503-1.44 5.717 1.47 7.36 4.04 2.275 8.26 4.357 12.64 5.812 2.19.727 3.03-2.031 3.92-3.767 4.86-9.492 10.27-18.649 16.31-27.443 8.53-12.394 18.64-23.427 29.09-34.987.34-1.036.53-1.396 1.29-1.988 3.83-.683 5.58-3.377 7.81-5.275 18.41-15.683 38.75-28.156 61.16-37.262 8.3-3.374 8.29-3.427 5.34-12.084-.32-.945-.92-1.818-1.1-2.78-1.07-5.564-3.64-7.888-10.01-8.353-10.99-.801-17.93-11.319-15.64-21.333 2.45-10.665 12.37-16.642 22.82-13.744 12.91 3.578 17.81 20.11 7.95 29.521-4.83 4.61-5.49 8.129-2.84 13.534 1.6 3.254 2.63 6.793 4 10.446 1.56-.23 2.88-.257 4.1-.633 22.1-6.812 44.66-10.545 67.82-10.719 7.01-.053 7.04-.275 7.29-7.229.11-2.996-.17-6.024.17-8.989.61-5.468-.64-8.823-6.38-11.568-7.97-3.816-10.51-13.358-7.49-21.614 2.63-7.185 10.31-12.069 18.14-11.53 8.61.594 15.62 7.125 16.91 15.763 1.17 7.845-3.25 16.614-11.46 18.892-6.86 1.905-7.63 5.752-7.78 11.547-.34 14.175-.52 14.178 13.18 15.873 4.96.614 9.92 1.179 15.76 1.772 14.16 3.043 27.49 5.934 40.17 11.044 4.51 1.816 6.86.267 8.31-3.93.65-1.882 1.48-3.705 2.31-5.519 1.69-3.687 1.77-6.789-1.93-9.622-3.23-2.478-5.08-6.116-5.77-10.213-1.65-9.919 4.67-19.115 14.23-20.741 10.61-1.807 19.9 4.465 21.45 14.486 1.57 10.159-5.02 19.366-15.25 21.129-3.68.635-7.67-.895-10.09 4.168-5.97 12.442-6.24 12.291 6.57 18.593 21.69 10.673 41.13 24.529 58.43 41.412 5.01 4.895 5.06 4.847 11.77.427.97 1.264.39 2.484-.69 3.307-3.72 2.845-2.47 5.426.1 8.25 2.9 3.198 5.7 6.506 8.35 9.923 12.06 15.594 22.18 32.323 29.76 50.582 1.23 2.953 1.36 7.579 7.04 6.456 7.72-1.526 11.69-4.431 12.43-9.997 1.73-12.983 11.51-20.555 22.64-17.533 7.52 2.041 12.98 8.074 13.65 15.458.68 7.59-1.99 13.713-8.64 17.785-6.29 3.857-15.34 4.129-20.36-1.465-5.43-6.049-10.21-5.387-16.59-2.817-4.8 1.932-5.78 4.205-4.07 9.008 5.25 14.791 8.1 30.14 9.89 45.718.88 7.629 1.22 15.264 1.03 22.909-.12 4.507 1.18 6.938 6.14 6.568 4.61-.344 9.28.873 14.68-.825 2.51.913 2.44 2.469.49 4.286-7.12-.434-14.45-2.875-19.35.257-4.86 3.112-2.62 11.017-3.31 16.753-2.42 20.208-7.75 39.572-15.13 58.459-2.73 6.983-2.68 7.187 4.15 10.322 3.57 1.64 6.91 3.976 11.69 4.407 1.82 1.362 1.74 2.719-.28 4.004-6.54-3.198-12.63-8.652-18.66-7.46-5.98 1.184-6.68 9.86-9.86 15.126-9.65 15.995-20.81 30.753-33.73 44.228-2.07 2.149-6.08 3.672-3.96 8.062.37.774.53 2.337-.85 1.894-7.58-2.425-9.85 5.089-14.68 7.726-2.88 1.569-5.3 3.967-8.55 6.277-3.5-2.321-4.4-5.486-2.86-9.801 5.94-4.499 11.84-7.958 16.15-14.28.6-.992.86-1.375 1.64-2.245 11.98-6.811 18.32-18.032 26.03-27.816 8.4-10.656 15.47-22.263 20.45-35.806.39-1.164.57-1.624 1.09-2.749 10.87-20.98 15.27-42.956 18.3-65.378 1.07-7.924-.74-12.161-9.57-11.166-2.28.257-4.62-.242-7.4-1.742-.77-.99-.9-1.503-.67-2.724 2.93-2.646 5.96-2.564 8.94-2.812 9.96-.83 11.18-2.233 10.13-12.37-2.08-20.224-5.64-40.168-11.97-60.34-.85-2.633-1.28-4.586-2.21-7.135-10.73-24.657-23.57-47.149-41.99-66.943a59.12 59.12 0 0 1-2.02-1.923c-18.4-18.966-38.25-34.784-61.83-45.536-3.31-1.51-6.46-3.43-10.93-3.752-1.19-.218-1.65-.351-2.77-.829-12.82-8.663-27.19-10.328-41.78-13.683-9.58-1.736-18.44-3.002-28.17-3.93a99.997 99.997 0 0 0-3.24-.03c-25.1-.037-48.77 3.937-72.73 11.183-2.25.553-3.77.733-5.91 1.475-26.64 10.565-50.9 23.598-70.91 44.601-.65.996-.92 1.384-1.7 2.283-10.7 5.164-16.14 14.75-22.81 22.832-9.94 12.028-18.81 24.911-23.9 40.735-.4 1.157-.59 1.612-1.16 2.711-6.48 9.522-9.24 19.762-12.28 29.891-1.12 3.755-1.33 7.887-4.98 11.246z"/><path fill="#001D3D" fill-opacity=".85" d="M3123.06 436.616c8.49-.886 16.81-.735 25.11-.939 11.14-.272 12.7-1.922 12.79-12.557.01-1.662.11-3.332 0-4.985-.33-4.697 1.83-6.554 6.48-6.457 8.3.172 16.62.087 24.93.022 9.4-.074 11.9-1.828 15.14-11.047 1.7-4.826 2.95-9.61 9.72-9.188 2.95.185 3.8-2.289 3.67-4.847-.58-11.228 1.59-22.567-1.32-33.697-.64-2.481-.36-4.619 1.9-6.141 1.5-1.01 3.12-1.075 4.68-.166 2.34 1.363 2.96 3.451 2.26 5.977-2.99 10.789-.72 21.806-1.44 32.692-.31 4.685 1.82 6.272 6.45 6.513 13.54.705 13.53.886 13.54 14.243 0 6.981.26 13.975-.08 20.94-.22 4.576 1.87 6.503 5.89 7.734 2.96.904 5.87.991 8.85 1.002 7.65.027 15.29.024 23.84.032 1.01 2.124 1.13 4.249 1.07 7.156-1.71 2.613-3.77 3.908-6.01 4.009-9.07.41-14.82 5.134-19.03 13.451-8.9-5.507-18.05-5.612-27.44-5.584-51.79.155-103.59.081-155.39.065-4.31-.001-8.66.271-12.91-.6-4.96-1.016-8.91-3.087-7.34-10.078 2-1.13 3.49-1.465 5.72-2.022 18.26 1.286 35.81.061 53.35.473 3.62.085 5.7-1.19 5.57-6.001z"/><path fill="#001D3D" d="M2539.38 261.329c-3.33-.157-5.45 1.857-7.91 2.659-8.28 2.698-16.37.228-21.09-6.493-4.81-6.848-4.46-15.73.88-22.094 5.15-6.143 14.4-8.192 21.7-4.806 7.28 3.381 11.36 11.265 9.93 19.783-.37 2.224-1.59 4.307-3.02 7.069-.12 1.453.07 2.356-.49 3.882z"/><path fill="#001D3D" fill-opacity=".8" d="M3264.05 460.547c-1.08-2.471-.88-4.15-1.1-5.768-.71-5.006 1.96-7.288 6.38-8.17 5.14-1.026 10.3-1.947 16.24-2.919.93 9.41 1.06 18.824 1 29.153-3 .893-5.84 1.111-8.97-.844-1.75-1.262-2.21-2.552-2.37-4.673-.31-8.308-6.99-3.723-11.18-6.779z"/><path fill="#6C6B6C" d="M2044.9 74.693c-.72.893-1.8.914-3.67.83-.63-21.078-.45-42.048-.29-63.018.03-3.974.01-7.948.01-12.415 4.12 1.55 2.94 4.584 2.95 6.843.12 18.65.05 37.3.11 55.95.01 3.646.35 7.292.89 11.81z"/><path fill="#4C4B4D" d="M3568.95 626.765c-.89.933-1.85.932-3.54.876-.72-15.219-.72-30.383-.72-45.539 5.05-.044 4.02 2.964 4.04 4.963.13 12.921.11 25.844.22 39.7z"/><path fill="#6C6B6C" d="M2539 262.546c-.12-1.644-.17-2.631.02-4.052 2.73 4.825 7.57 8.126 11.48 13.091.3 1.131-.01 1.564-.92 1.971-3.77-3.369-7.14-6.861-10.58-11.01z"/><path fill="#001D3D" fill-opacity=".95" d="M1042.02 488.735c23.71.048 46.57.104 69.44.215 9.2.045 9.26.099 9.29 9.276.06 24.526.07 49.053.17 74.51.06 75.673.05 150.414.01 226.098-9.57-5.78-20.46-5.207-31.38-5.17-42.16.145-84.31.058-126.47.06-2.656 0-5.334-.191-7.962.084-6.555.688-8.756 2.819-10.15 9.747-.347 1.728-.709 3.2-3.225 4.05-4.467-3.585-3.948-8.443-3.952-13.032-.085-96.971-.111-193.941-.002-290.911.018-16.278 4.618-21.249 20.831-20.984 16.892.277 33.926-2.429 51.46 2.433 2.23 4.347 5.51 3.568 8.36 3.6 7.57.084 15.15.045 23.58.024zM653.759 853.583c-.751-68.07-.78-136.303-.756-204.536.003-9.184.128-9.234 9.557-9.296 9.985-.065 19.973-.144 29.955.023 4.689.078 6.298-1.853 6.538-6.492.489-9.478.742-9.482 10.256-9.533 6.656-.036 13.313-.018 20.919-.075 6.596-.005 12.248.197 17.89.035 3.928-.113 5.001 1.602 5.216 5.322.621 10.707.785 10.621 11.703 10.728 15.044.148 13.265-2.049 13.35 13.13.106 18.939-.006 37.88.1 56.819.041 7.481.193 7.583 7.866 7.63 12.294.076 24.589.001 37.814-.18 21.296-.054 41.66.062 62.895.14 5.775-2.685 10.942-3.139 16.28-1.767 4.375 1.125 6.84 4.067 6.978 8.533.132 4.281-2.596 7.455-6.438 7.578-12.22.391-12.119 8.436-11.853 17.221.792 26.151-1.449 52.357 1.471 78.475.406 3.636.359 7.341-3.563 10.286-72.335.098-143.737.098-215.138.099-2.325 0-4.652-.069-6.974.017-7.796.285-9.827 2.095-10.829 9.758-.293 2.243.334 4.786-3.237 6.085zm2812.081-23.868c-3.68-2.319-2.83-5.5-2.83-8.387-.04-49.174-.03-98.348 0-147.521 0-7.475 3.17-14.774.24-22.497-1.41-3.706.43-8.094-4.77-10.904-3.08-1.659-1.93-6.78-.87-10.219 1.02-3.303 4.37-2.394 6.87-2.407 16.95-.086 33.89-.063 51.79-.124 16.16.019 31.38.086 47.5.041 1.81-.798 2.8-1.053 4.58-.438 18.06 1.02 18.06 1.02 18.06-16.428.01-10.327-.05-20.656.07-30.982.03-2.543-.9-5.331 1.25-7.728 2.68 1.362 1.71 3.866 1.73 5.856.09 13.992.01 27.985.09 41.977.04 7.768.13 7.801 7.49 7.942 4 .076 8-.097 12 .056 2.43.094 6.04-1.11 6.25 2.871.18 3.427 2.13 9.013-1.73 9.922-6.4 1.51-4.52 5.64-4.53 9.099-.13 28.65-.06 57.302-.06 85.953.01 14.325-.04 28.651.04 42.976.04 7.678.14 7.795 7.56 7.848 13 .093 26 .233 38.98-.074 5.27-.124 7.63 1.352 8.27 6.932 1.24 10.901 3.28 21.711 5.21 33.356.36 1.223.5 1.648.12 2.494-67.81.41-135.09.4-203.31.386zM381.572 854.913c-.567 5.173-.611 9.505-.642 13.837-.023 3.226-1.529 4.944-4.86 4.919-2.332-.018-4.665.055-6.997.056-27.995.004-55.99.001-83.984.005-2.333.001-4.666.047-6.998.053-3.172.007-5.035 1.365-5.033 4.747.002 2.332-.07 4.664-.071 6.997-.009 25.661-.01 51.323-.014 76.985 0 2 .026 4-.007 5.999-.15 8.979-.155 8.993-8.725 9.158-2.666.051-5.333.009-7.999.009-16.997 0-33.994.03-50.99-.011-10.091-.025-10.188-.075-10.193-9.666-.018-36.326.034-72.652.199-109.945 3.894-3.849 8.342-3.307 12.609-3.351 13.297-.137 26.598-.164 39.893-.011 7.031.081 10.466-2.489 10.218-9.913-.175-5.23-.891-10.692 2.581-16.289.71-22.347.848-44 .981-65.653.014-2.333.207-4.688-.04-6.994-.533-4.978 1.823-6.267 6.432-6.202 14.328.201 28.661.072 42.992.071 5.332 0 10.68.257 15.992-.073 4.792-.297 6.415 1.443 6.312 6.255-.266 12.326.134 24.667-.186 36.99-.138 5.333 1.829 6.86 6.927 6.746 12.992-.29 25.993-.128 39.917-.191 3.741 2.37 4.113 5.746 4.114 9.051.005 15.217 1.364 30.498-2.428 46.421z"/><path fill="#001D3D" fill-opacity=".95" d="M381.78 855.59c-.779-17.984-.821-36.131-.915-55.236.058-26.092.169-51.227.278-76.362.01-2.315.183-4.648-.036-6.942-.407-4.269 1.318-6.052 5.62-5.693 2.627.22 5.289.013 8.805.023 31.183.126 61.495.227 91.807.326 2.332.008 4.664-.01 6.996.004 10.566.062 10.62.065 10.645 10.257.046 18.322-.002 36.645.032 54.968.033 18.597-.432 37.204 1.84 55.74.394 3.215.692 6.658-1.262 10.452-36.023.593-71.47.591-106.917.597-11.222.002-11.207.017-14.624 10.56-.16.494-1.005.766-2.269 1.306zm3382.99 105.246c-22.43.925-44.94.956-67.45.878-7.55-.027-8.8-.773-9.9-7.983-2.42-15.921-4.4-31.909-6.56-48.716 10.55-7.149 21.53-4.837 33.29-1.834 14.75.77 28.72.9 42.68 1.101 7.65.111 7.76.165 7.81 7.683.08 15.978.04 31.956.13 48.871zm-931.53-355.807c-3.72 3.732.91 6.452-.29 10.068-.03 6.949-2.6 14.684 1.02 19.049 3.87 4.659 11.88 1.014 18.03 1.735.65.077 1.34-.073 1.99.026 2.75.418 6.53-1.409 7.85 2.317 1.21 3.412.97 7.212.03 10.789-.36 1.381-1.71 1.964-3.09 2.044-1.99.114-3.98.05-5.97.127-7.36.284-7.45.293-7.5 7.982-.07 9.292.03 18.584.07 28.754.57 3.395 1.53 5.809 2.07 9.328 1.2 30.071.6 59.195.53 89.287-.46 14.567 1.95 28.276-2.36 42.466-7.7-4.215-15.75-3.281-23.65-3.281-83.25.004-166.49-.007-249.74.033-3.94.002-8.02-.789-12.52 1.636-6.28-.892-5.55-5.449-5.01-8.999 1.59-10.407.97-20.855 1.34-32.224-.37-26.307-.36-51.67.03-77.961-.32-5.138.46-9.407-.78-14.472.34-9.491.83-18.081.73-26.703-.07-6.052-.93-11.348-4.84-16.634-6.6-8.9-2.3-16.923 8.78-17.516 8.27-.443 16.56-.137 25.66-.091 2.33.127 3.85.234 6.04.234 2.26-.148 3.98-.014 4.97-2.479 1.83-4.635.14-8.395-.86-12.988 0-4.373.2-7.974.38-11.573.56-10.901 1.46-11.79 13.57-13.093 2.63.04 4.39.053 7.03.213 6.47.664 8.48 4.313 8.91 9.384.41 4.873.16 9.735-.16 15.42-.46 3.41-.57 5.965 1.06 9.091 2.11 6.271 6.47 6.104 10.89 5.175 4.87-1.025 4.4-5.225 4.54-8.802.25-6.644.01-13.297.21-19.949.25-8.408 5.41-10.52 12.65-10.503 7.08.016 12.58 1.671 12.87 10.228.22 6.319.38 12.65.1 18.949-.34 7.498 2.43 11.254 10.33 10.753 4.64-.294 9.31-.043 14.78-.021 1.35.033 1.89.035 3.23.016 6.58-.128 7.8-3.849 7.98-8.715.3-8.293-.8-16.645 1.29-25.668.92-1.795 1.68-2.662 3.36-3.846 15.52-3.515 30.5-.865 46.19-2.35 1.45-.279 2.04-.351 3.52-.438 10.12 1.442 19.43.904 29.61 1.087 2.71-.074 4.53-.008 7.3-.081 10.88-.363 20.84-.682 30.75.154 6.82.575 10.53 3.858 7.08 12.042zm435.09 41.945c.65 48.283.66 95.818.68 143.353 0 1.994-.07 3.991.01 5.983.29 6.963.45 7.311 7.46 7.37 16.28.136 32.57.046 48.86.047 2.33.001 4.65-.04 6.98.009 8.4.178 8.49.188 8.62 8.223.12 7.31.01 14.625-.04 22.878-18.82-2.578-37.79-1.022-56.67-1.048-103.81-.14-207.62.041-311.43-.247-9.51-.026-17.09 1.081-20.73 10.997-.18.466-1.09.659-2.36 1.095-1.68-.791-2.73-1.853-2.82-3.148-1.37-18.423-2.76-36.854 1.47-55.994.6-29.279.58-57.762.61-86.245 0-9.947.04-9.949 10.48-9.988 15.23-.056 30.46-.11 46.62-.341 8.41-2.627 16.08-.755 23.66-1.108 7.04-.327 10.01-3.409 10.33-10.41.44-9.538-1.76-19.284 2.57-29.299 7.14-5.337 14.59-6.537 22.37-6.541 62.15-.034 124.31-.062 186.46.035 5.64.008 11.36.039 16.87 4.379zm-1232.06 24.022c.66 52.123.67 103.51.64 155.84-19.12-2.612-38.41-1.004-57.6-1.044-75.45-.159-150.9-.047-227.28-.016-6.65-12.496-4.73-25.27-1.53-38.767.79-35.956.89-71.21 1-106.465.01-4.323.09-8.645.39-13.866 3.99-4.66 8.86-4.09 13.44-4.094 83.63-.085 167.26-.08 250.89-.033 7.47.004 14.82.383 20.05 8.445zm262.71 1.299c1-2.389 2.77-2.559 5.3-2.573 3.19-4.381 7.36-3.5 11.33-3.452 56.65.68 113.3.165 169.95.274 4.34.008 8.63-.643 13.91-.899 3.51.2 5.89.984 9.02 2.477 1.79 1.223 2.57 2.149 3.35 4.111-6.33 8.526-6.19 17.671-5.99 26.976.26 12.242.01 24.494.09 36.742.05 6.839-1.21 13.992 5.01 19.388 1.88 1.633 2.08 4.659.24 6.33-7.95 7.215-4.47 16.668-5.34 26.162-.37 18.073 2.16 35.33-2.19 53.115-6.07-1.037-11.65-1.266-17.32-1.261-59.17.06-118.34.036-178.46.029-.94-23.209-1-46.413-.91-69.616.02-4.676-.02-8.793-6.44-8.542-1.77.069-3.2-1.07-3-3.107.2-2.03 1.84-2.694 3.57-2.649 5.03.132 5.9-2.788 5.88-7.039-.1-22.209-.04-44.418-.02-66.628 0-3.128-.04-6.159-5.14-6.394-1.7-.825-2.42-1.723-2.84-3.444zM1243.72 841.626c.18-7.708.18-7.879 7.06-7.91 20.32-.092 40.63-.019 60.94-.041 11.2-.012 11.23-.04 11.23-11.652.02-31.969.02-63.938.03-95.907 0-2.663.02-5.327.11-7.989.09-2.794 1.63-4.222 4.39-4.299 2.33-.065 4.67-.101 7-.102 20.64-.008 41.29.054 61.93-.034 8.31-.036 8.42-.18 8.51-8.339.12-10.988.06-21.979.04-32.968-.02-9.296-.05-9.296-9.05-12.119 1.57-4.074 5.09-2.225 7.65-2.47 7.1-.681 7.31-.545 7.39-7.534.14-13.319-.01-26.641.1-39.96.02-2.433-.96-5.261 2.06-7.628 2.49 1.992 1.77 4.764 1.78 7.142.08 13.653-.04 27.308.11 40.96.07 6.063 1.55 7.23 6.89 6.932 3.16-.176 4.82-1.41 5.09-4.768.26-3.331-1.01-7.065 1.52-10.229 3.4 1.696 2.27 4.302 2.42 6.391.6 8.479.55 8.53 9.31 8.61 7.65.071 15.31-.008 22.97.036 2.21.013 4.56-.377 6.85 1.467-1.11 3.547-6.17 1.743-6.69 5.106-.4 2.612-.4 5.301-.41 7.956-.03 11.322.09 22.646-.06 33.966-.06 4.628.83 7.381 6.45 7.621 7.51.32 7.6.786 7.61 9.114.04 40.294.03 80.588.01 121.821-.35.884-.85.946-.98.756-5.96-8.712-14.92-7.902-23.86-7.888-62.81.104-125.62.121-188.43-.041-6.8-.017-13.16.795-19.97 4zm824.14 18.116c-.82-34.25-.88-68.532-.86-102.814.01-9.102.13-9.202 9.65-9.207 57.58-.034 115.16-.035 172.74 0 9.5.006 9.57.113 9.57 10.297.04 33.95.01 67.899-.01 102.788-9.31-6.829-20.45-5.053-31.2-5.067-42.96-.053-85.92-.019-128.88-.024-10.25-.001-20.62-.937-31.01 4.027zm-467.82-21.97c-.96-46.503-1.03-93.027-1.02-139.551 0-9.846.15-9.846 11.91-10.887 34.47-.275 68.05-.431 101.62-.443 6.75-.003 6.93.246 6.95 7.568.08 29.592.05 59.185-.06 89.663 3.28 5.954 2.95 11.742 2.67 17.356-.6 12.244 1.96 24.649-2.46 37.484-5.75-.875-10.94-1.317-16.28-1.298-34.14.124-68.27.077-103.33.108z"/><path fill="#001D3D" d="M1718.99 840.652c.03-18.517.05-36.095.21-54.658 9.99 2.012 20.11-.331 31.04.362.88 12.485.82 25.019.81 38.496.02 50.141-.02 99.338-.05 148.534 0 13.259.67 12.376-12.57 12.214-5.92-.073-13.21 2.446-17.42-1.266-4.83-4.253-1.83-11.951-1.86-18.09-.22-41.55-.14-83.102-.16-125.592z"/><path fill="#282D30" d="M2503 842.436c.68-.758 1.35-.799 2.01-.736 2.19.211 5.31-.493 5.44 2.748.15 4.075-3.45 2.969-6.65 3.327-.79-1.516-.81-3.046-.8-5.339z"/><path fill="#001D3D" fill-opacity=".85" d="M1751.9 452.679c90.05-.926 179.88-.952 269.7-.948 10.09 0 10.89.853 13.52 10.61 1.31 4.861 1.9 9.691 1.88 14.72-.09 34.266-.04 68.531-.06 103.735-.61 1.227-1.45 1.895-1.8 1.694-15.14-8.785-31.76-5.397-47.81-5.461-72.33-.289-144.66-.107-216.99-.16-5.61-.004-11.37.766-17.44-2.497-.95-2.617-1.39-4.576-1.38-6.535.02-38.083.09-76.166.38-115.158zm1289.89 124.592c.99 23.403 1.08 46.996 1.19 71.527 0 11.86-.21 22.786.07 33.7.13 5.242-1.86 8.713-6.96 8.872-9.19.287-18.46 1.534-28.33-1.286-.77-34.525-.8-68.707-.78-102.89.01-9.37.07-9.379 9.03-9.481 8.3-.095 16.59-.169 25.78-.442z"/><path fill="#001D3D" d="M2875.77 273.843c1.42-3.795-.88-7.056-1.74-10.514-2.62-10.462 3.79-20.185 14.5-22.194 9.66-1.81 19.11 4.684 20.64 14.182 1.74 10.806-5.08 20.384-15.47 21.781-3.44.463-6.65-.364-9.68-1.76-2.45-1.125-4.71-2.547-8.25-1.495zm-4.98 342.437c3.16-1.635 5.71-2.364 8.3-2.892 9.09-1.854 16.99 2.029 20.62 10.053 3.39 7.504 1.27 16.485-5.13 21.699-6.79 5.536-16.3 5.475-23.01-.147-6.74-5.641-8.51-14.44-4.47-22.611.88-1.779 2.06-3.407 3.69-6.102zm52.26-75.818c1.15-1.47 1.72-2.443 1.86-4.286 5.68-9.631 12.57-12.71 21.46-10.176 7.48 2.131 12.6 9.007 12.71 17.071.12 8.247-5.19 15.469-13.12 17.831-12.16 3.621-22.27-5.011-22.91-20.44zm22.32-94.168c1.06-1.598 1.48-2.797 1.21-4.896 3.01-11.351 10.77-16.88 20.09-15.079 9.26 1.788 15.37 9.866 14.75 19.495-.47 7.346-5.12 13.454-11.87 15.606-7.66 2.444-15.72-.054-20.48-6.298-1.85-2.431-2.81-5.229-3.7-8.828z"/><path fill="#4C4B4D" d="M2863.05 608.389c4.44-.996 5.41 3.34 8.14 6.262.19.631-.14 1.005-.33 1.17-3.6-1.189-5.46-4.183-7.81-7.432z"/><path fill="#001D3D" d="M2874.91 273.666c-.28.671-.53 1.382-1.33 2.101-.22-.583.1-1.173.94-1.876.52-.113.44-.185.39-.225zm-1.99 2.01c-.29.661-.54 1.356-1.41 2.008-.63-.043-.55.028-.52.067.34-.581.65-1.2 1.5-1.898.54-.078.47-.143.43-.177z"/><path fill="#4C4B4D" d="M2862.98 607.715c-.56-.35-1.16-.672-1.95-1.44.72-.817 1.45-.569 1.94.865-.08.659-.02.601.01.575zm-2-1.995c-.67-.317-1.59-.491-.85-1.563.03-.042.8.425.96 1.163-.26.508-.16.437-.11.4z"/><path fill="#001D3D" fill-opacity=".9" d="M1752.86 452.416c-2.19-7.822-1.12-15.074-1.39-22.286-.12-3.381 1.69-4.649 4.87-4.608 4.61.06 9.22-.042 13.83.06 1.26.028 3.46.276 3.62.866 2.68 9.753 9.01 3.718 13.99 3.356.65-.047 1.29-.254 2.57-.733 7.43-1.911 14.16-3.803 21.03-4.925 4.68-.766 5.75-3.051 5.82-7.401.15-8.637.4-8.639 8.6-8.724 2.33-.024 4.69.237 6.98-.051 5.74-.72 9.15.992 7.86 8.32 13.9-1.981 26.44-6.029 39.2-8.991 3.51-.814 2.63-4.123 2.75-6.668.51-10.596.5-10.597 10.76-10.608 2.33-.002 4.67.142 6.99-.025 3.75-.272 5.68 1.152 5.32 5.095-.46 5.01 2.35 5.444 6.24 4.492 8.7-2.137 17.38-4.415 26.15-6.273 5.11-1.082 6.8-3.647 6.74-8.882-.26-20.949-.07-41.902.13-63.777 3.99-4.439 8.79-4.107 13.4-4.113 56.24-.072 112.47-.067 168.7-.011 3.98.004 8.01-.088 12.43 2.562.86 4.668 1.13 8.653 1.13 12.637.04 112.899.05 225.798.07 338.697v13.028c3.52-3.027 3.15-6.478 3.7-9.262 5.71-28.704 11.21-57.451 16.73-86.192 1.86-9.66 1.82-9.668 12.12-9.705 13.77-.049 13.77-.049 13.77-13.651.01-26.643.03-53.285 0-79.928 0-7.429-.06-7.451-7.52-8.862-1.32-.251-2.83-.354-2.98-1.943-.22-2.395 1.74-2.403 3.36-2.456 2.66-.087 5.33-.039 7.99-.046 38.96-.092 77.92-.184 117.77-.473 6.54 7.258 5.71 16.248 2.31 23.153-2.9 5.902-1.57 9.036 1.46 13.985 1.14 22.437.49 44.095.53 65.749.01 7.051-2.17 13.454-1.31 21.239 2.55 23.326 3.36 47.126-.78 71.361-.98 2.501-2.22 3.84-4.21 5.223-.94 1.96.5 1.997 2 2.877 4.18 3.247 4.28 7.358 4.32 11.326.2 19.972.75 39.973-.25 59.904-.4 8.061-1.4 15.614-.48 24.046 2.26 20.755 1.06 41.867.57 62.834-.05 2.008-.61 3.942-2.27 6.368-1.32 1.297-2.02 2.087-2.9 2.437-2.48.985-7.01-1.118-6.97 3.483.04 3.69 4.06 2.375 6.4 3.084 1.82.551 2.65 1.87 2.8 3.664.09.994.11 1.996.11 2.995 0 21.988-.06 43.976.02 65.964.02 4.181-.64 7.294-5.79 7.158-1.73-.045-3.45.592-3.59 2.641-.19 2.718 1.91 3.268 3.97 3.258 4.57-.021 5.41 2.671 5.39 6.518-.09 16.991.06 33.983-.09 50.972-.07 7.15-1.17 8.27-8.05 8.395-10.99.198-21.99-.119-32.98.124-5.29.117-7.21-2.147-6.83-7.148.18-2.319.02-4.662.02-6.994-.02-40.645-.03-81.29-.06-122.87-3.79-5.473-3.1-10.962-3.11-16.227-.09-27.625.04-55.251-.08-82.876-.05-11.705-.91-12.61-12.44-12.629-53.58-.087-107.17-.089-160.76.002-11.46.019-12.3.925-12.35 12.712-.11 26.627.01 53.254-.07 79.881-.01 4.951.59 10.031-2.48 15.453-.59 20.04-.63 39.304-.64 58.567-.01 13.309.55 12.145-12.66 12.174-3.98.009-7.97-.069-11.95-.017-3.72.049-5.49-1.697-5.42-5.416.05-2.323-.03-4.649-.03-6.974-.01-29.228-.02-58.456-.05-88.618-3.35-4.821-3.11-9.579-3.11-14.209-.02-46.852-.15-93.704.14-141.536-.36-30.358-.15-59.735.03-90.082-.44-32.915-.04-64.864-.16-96.811-.02-3.661.06-7.324-.12-10.981-.85-17.417-3.61-20.169-20.76-20.176-80.87-.032-161.75.005-242.62-.048-5.61-.003-11.35.755-17.43-2.454zm-143.38 122.656c.88 24.945 1.02 49.222 1.22 73.498.11 12.298.32 24.594.8 37.742-8.56 5.565-9.62 13.355-9.53 22.567.38 37.56.18 75.128.13 112.692-.01 4.944.59 10.017-2.42 15.446-.59 9.079-.79 17.386-.6 25.683.11 4.985-1.61 7.322-6.87 7.127-6.96-.257-13.95-.053-20.92-.052-28.23.001-56.46.03-84.69-.017-9.47-.016-9.49-.105-9.62-9.216-.06-4.317-.02-8.635-.03-13.878-3.55-5.557-2.99-11.01-3-16.304-.05-33.332-.04-66.665 0-99.997 0-6.541.12-12.705-8.25-14.825-4.57-1.157-5.46-5.626-5.51-9.725-.18-14.62-1.18-29.265 1.04-44.466-5.21-1.15-10.51-.378-15.73-.579-3.66-.141-7.8.776-10.81-1.14-4.06-2.583-6.7-2.842-11.27-.306-5.35 2.968-10.12-1.019-10.33-7.783-.37-11.991-.06-23.996-.14-35.996.01 11.362.02 22.725 0 34.087-.01 4.062.17 8.319-4.8 9.841-2.73.838-2.22 2.02-1.69 4.334 3.12 13.48 1.05 27.197 1.41 40.812.22 8.356-4.11 12.033-12.31 12.082-18.67.112-37.33-.047-56 .084-12.68.09-13.49.877-13.53 13.745-.08 29.666.06 59.332-.06 88.998-.06 15.454-.9 16.174-16.49 16.186-17.34.014-34.67-.034-52 .027-4.97.018-10.18-.404-13.97 5.327-6.96 18.113-10.99 36.274-16.02 54.137-7.82 27.768-15.19 55.664-22.6 83.548-1.32 4.968-3.82 7.047-9.11 6.996-22.66-.215-45.32-.194-67.98-.023-5.27.039-6.93-2.113-6.89-7.13.16-18.327.05-36.655.04-54.984-.01-40.655-.02-81.31-.04-122.9-3.3-4.826-3.15-9.566-3.15-14.212-.05-66.831-.06-133.663 0-200.494.01-3.657.05-7.329 2.02-11.659 3.17-3.207 6.47-3.647 9.78-3.683 24.39-.262 48.79-.314 73.19.021 2.32.031 4.59.484 7.5 2.176 27.39.718 53.96.785 80.53 1.104 5.85.07 13.2-2.631 17.16 1.535 3.53 3.701 1.02 10.789 1.14 16.373.18 8.968.17 17.944 0 26.912-.07 3.806 1.3 5.384 5.17 5.306 7.64-.155 15.29-.313 22.92.053 5.17.249 6.94-1.504 6.84-6.725-.25-13.283 0-26.576.34-40.751 4.02-4.634 8.87-4.053 13.44-4.069 79.76-.288 159.52.041 239.27-.023 3.98-.003 8.01-.116 12.42 2.498zM551.915 475.379c8.568-.021 16.222.331 23.861.117 5.063-.142 7.171 1.447 6.965 6.797-.345 8.977.07 17.98-.134 26.966-.103 4.513 1.127 6.708 6.157 6.542 9.313-.309 18.655-.37 27.962.022 5.572.234 6.742-2.26 6.619-7.109-.227-8.985.162-17.987-.138-26.967-.166-4.956 1.901-6.306 6.486-6.23 18.542.31 14.868-1.692 15.236 14.346.16 6.988.104 13.984.042 20.976-.03 3.278 1.317 4.564 4.689 4.924 15.016 1.6 15.821.997 15.835-13.831.006-6.992.103-13.986-.013-20.976-.063-3.74 1.364-5.533 5.256-5.398 4.323.15 8.667.219 12.981-.027 4.546-.259 5.641 1.998 5.575 6.033-.153 9.321.158 18.652-.114 27.967-.144 4.904 1.855 6.337 6.483 6.253 11.65-.211 23.308-.127 34.961-.018 2.765.027 6.183-1.103 7.316 3.189 1.271 4.814.212 10.513-3.581 11.8-4.866 1.651-3.468 5.14-3.474 8.105-.055 27.636.043 55.272.193 83.834-5.265 5.733-11.879 3.894-18.015 4.123-5.823.218-10.414 1.144-11.592 8.095-1.024 6.047-5.86 7.495-11.201 7.774-7.967.416-15.945.257-23.913.201-7.081-.05-10.277 3.004-10.215 10.161.085 9.964-.005 19.932-.008 29.897-.013 48.17-.037 96.339.024 144.508.011 8.314-.73 16.531-2.62 25.501-.537 19.398-.488 38.006-.61 56.613-.051 7.804-.224 8.039-7.734 8.051-44.193.076-88.387.078-132.58-.001-7.328-.014-7.518-.283-7.554-8.226-.099-21.266-.042-42.532-.047-64.735-1.591-15.103-2.958-29.307-3.119-43.554-.275-24.253-.007-48.512-.107-72.767-.052-12.622-.843-13.389-13.714-13.436-25.253-.091-50.506.013-75.759-.059-4.944-.015-10.017.545-15.269-2.734.595-17.999-.327-35.318-.118-52.627.157-12.989-.022-25.982.065-38.973.047-7.136.154-7.268 7.044-7.34 10.991-.116 21.99-.231 32.975.054 4.804.125 6.395-1.521 6.361-6.29-.169-23.317-.192-46.636.027-69.952.046-4.85-1.563-6.781-6.291-6.208-.656.079-1.351.11-1.993-.015-2.721-.532-6.776 1.551-7.8-2.278-.908-3.396-.452-7.262-.048-10.859.215-1.92 2.44-1.844 4.076-1.854 5.663-.034 11.326.026 16.988-.047 7.934-.102 7.985-.139 8.056-8.441.069-7.994-.049-15.99.036-23.984.079-7.573.147-7.693 7.631-7.711 28.98-.069 57.96-.054 87.861-.202zM3465.17 828.827c-.27 23.527-.04 46.171-.37 68.807-.16 10.915-2.55 21.74-1.83 32.74.24 3.749-1.78 5.448-5.47 5.368-2-.043-3.99.02-5.99.02-32.96.002-65.93.002-98.89.001-1.66 0-3.34-.11-4.99.005-4.5.313-6.99-1.358-6.69-6.229.14-2.321 0-4.659 0-6.99-.02-28.301-.03-56.602-.07-85.837-3.97-5.826-2.88-11.684-3.07-17.264-.4-11.418-1.19-12.345-12.83-12.496-14.99-.196-29.99.239-44.98-.187-11.19-.318-13.99-2.743-14.02-13.573-.13-47.642-.75-95.287.44-143.874 2.09-8.954-.56-16.83-.56-24.791.02-43.933.05-87.866-.02-131.798-.01-7.662 1.53-14.517 7.96-20.594 4.44-2.592 7.9-1.536 11.93.969.78 4.306 1.05 7.958 1.05 11.609.03 71.259.02 142.518.05 213.777 0 12.588-1.02 10.961 11.36 11.037 11.65.071 23.31.092 34.96-.015 7-.064 7.17-.192 7.21-7.29.1-17.981.03-35.963.03-53.944.01-35.962 0-71.925.04-107.888.01-4.701-1.65-10.337 6.35-10.686 2.46-.108 1.82-3.153 1.85-5.022.08-6.659-.01-13.32.08-19.978.03-2.169-.65-5.283 2.9-5.149 5.63.211 5.3-3.377 5.44-7.213.17-4.571-2.02-10.315 1.17-13.425 3.53-3.455 9.5-1.2 14.39-1.284 11.98-.206 23.97-.075 35.96-.065 9.56.008 8.95-.777 8.97 9.388 0 1.332-.01 2.664 0 3.996 0 4.284-.95 8.943 6.07 8.697 3.27-.114 2.71 3.164 2.74 5.388.07 6.659.16 13.322 0 19.978-.09 3.739 1.2 5.448 5.14 5.33 6.32-.189 12.66-.244 18.98.028 4.76.205 6.67-1.578 6.27-6.375-.18-2.166-1.07-5.454 1.5-6.283 3.73-1.204 7.87-1.036 11.75.016 1.45.392 1.45 2.042 1.5 3.364.08 1.996.07 3.996.18 5.989.09 1.434.8 2.601 2.29 2.78 2.22.267 2.78-1.282 2.79-3.086.06-5.993.07-11.986.09-17.98 0-2.996.09-5.997-.02-8.989-.12-3.153.94-4.716 4.4-5.144 15.68-1.943 16.79-1.058 16.79 14.792 0 4.329-.02 8.658.02 12.987.03 3.56-.74 7.298 4.52 8.442 2.64.576 2.13 3.793 2.43 6.037 4.03 29.666 8.05 59.334 12.16 89.843-3.62 4.666-8.5 3.924-13.07 4-11.31.188-22.64-.161-33.95.148-9.19.251-10.24 1.858-6.67 9.919 2.91 6.557 4.22 13.474 3.85 20.434-2.73 51.902-.47 103.835-1.22 155.746-.05 3.65.37 7.331-.9 11.814zm-2576.167 9.808c3.201-3.901 2.518-8.007 1.656-11.202-2.479-9.189-1.523-18.447-1.597-27.672-.165-20.565-.12-41.132-.033-61.697.035-8.071.191-8.078 8.45-8.344 1.657-.053 3.317-.007 4.975-.051 3.339-.089 6.206-1.302 6.086-5.017-.111-3.412-1.561-6.616-5.759-6.849-4.302-.238-8.619-.207-13.888-.419-.813-4.78-.539-9.435-.537-14.09.043-104.904.025-209.809.172-314.714.008-4.971-2.872-11.483 5.215-13.859 1.394-.409.903-3.009.918-4.647.037-3.996.217-8.005-.036-11.985-.318-4.999.419-8.503 6.776-7.819 5.859.631 5.025-3.844 5.028-7.427.024-22.313-.033-44.626.088-66.939.017-3.112-1.212-6.591 1.776-9.625 3.783 1.699 2.359 5.138 2.375 7.705.134 21.98.08 43.96.091 65.94.001 2.33.05 4.66.089 6.99.044 2.572 1.658 3.355 3.903 3.353 2.37-.003 4.858.056 5.057-3.25.14-2.323.148-4.657.15-6.986.016-15.985-.005-31.971.037-47.956a51.24 51.24 0 0 1 .491-6.926c.151-1.075 1.271-1.425 2.268-1.184.529.128 1.304.676 1.354 1.106.266 2.297.454 4.617.459 6.929.038 16.651-.01 33.303.044 49.955.027 8.244.098 8.309 7.933 8.378 13.694.12 11.951-1.403 12.044 12.473.087 13.103.026 13.006 13.228 13.138 13.245.133 12.123-2.271 12.157 12.277.055 22.979-.026 45.959.07 68.937.03 7.172.205 7.313 7.114 7.394 10.656.126 21.314.024 31.973.048 1.99.005 4.07-.192 5.95.314 3.11.838 3.3 4.684 1.58 5.224-8.13 2.541-4.45 8.992-5.59 14.744-17.857.846-35.507.838-53.157.838-2.33 0-4.694-.204-6.985.107-6.247.85-9.8 4.909-9.906 11.345-.121 7.325-.034 14.653-.034 21.979-.01 95.576-.018 191.151-.002 287.668.014 14.855.081 28.769-.042 42.681-.07 7.882-.236 8.086-7.578 8.167-12.587.14-25.177-.064-37.763.084-4.516.053-6.838-1.468-6.615-6.276.184-3.966.022-7.949.015-12.84zm2059.037-52.71c.92 19.163.92 38.554.95 58.886.03 17.84.03 34.74.03 52.417-6.48-1.178-11.22-3.462-15.98-5.555-27.37-12.034-54.68-24.231-82.09-36.17-4.23-1.842-6.37-4.157-6.04-8.947.33-4.975.06-9.991.05-15.908.12-14.648.24-28.376.56-43.096 11.01-3.872 22.02-1.958 32.92-2.342 11.47-.404 11.92-1.096 6.48-10.965-11.87-21.549-23.59-43.184-35.07-64.946-1.56-2.957-2.94-5.966-4.06-9.889-.41-3.327-.53-5.974-.53-9.616 10.4 14.973 18.52 32.137 27.77 48.673 7.47 13.366 14.94 26.751 21.82 40.429 2.99 5.963 6.79 7.96 13.32 7.672 12.97-.572 25.97-.324 39.87-.643zm-445.03 55.753c.06-17.611.1-35.21.27-53.79 2.02-2.86 2.96-5.647 6.36-6.863 2.21.037 3.65.471 5.84 1.169 14.39 1.677 28.2-1.073 42.47 2.459.61 11.731 2.36 23.018-.73 34.163-.68 2.461-.68 5.286 1.15 8.355.56 30.491.56 60.434.54 90.378 0 2.66-.01 5.324-.14 7.981-.1 2.241-1.25 4.069-3.56 4.004-15.22-.428-30.47 1.674-45.69-1.235-5.64-1.078-6.69-3.74-6.65-8.778.2-23.287.1-46.578.13-70.8 1.36-2.495 4.45-3.762.46-6.602-.44-.448-.47-.429-.45-.441z"/><path fill="#001D3D" fill-opacity=".9" d="M1751.92 574.619c88.08-.903 175.9-.812 263.73-1.043 8.08-.022 14.97.92 20.58 8.04.71 29.491.72 58.865.71 89.177-9.31-6.809-20.45-5.045-31.2-5.049-83.97-.032-167.93-.007-252.74.017-2.31-7.863-1.43-15.815-1.46-23.728-.1-22.169.06-44.339.38-67.414zm1517.62 72.56c-10.33-2.023-20.29-1.449-30.22-1.451-54.52-.011-109.05-.016-163.57.004-10.55.003-21.26-1.118-31.97 3.987-3.19-2.158-3.74-5.099-3.8-8.072-.36-19.065-.48-38.133.07-57.198.05-1.98.64-3.888 2.15-6.495.49-30.519.52-60.166.44-89.812-.01-3.651 1.05-7.114-4.37-9.586-4.44-2.025-2.24-8.501-1.57-12.893.53-3.52 4.26-2.159 6.71-2.413 6.82-.708 6.85-.663 7.06-7.742.07-2.33.18-4.676 0-6.992-.44-5.366 2.8-6.026 7.71-5.415 2.25 8.24 2.25 8.47 8.97 8.567 12.33.177 24.66.054 36.99.054 46.32.001 92.64.156 138.95-.152 7.72-.051 14.27.619 19.15 8.037.73.121.73.116.73.118 3.63 4.026 10.04-.075 13.71 5.31.28 2.189.28 3.689.28 5.939-2.65 3.193-2.8 7.219-6.21 9.431-3.22 2.083-1.73 6.13-1.74 9.31-.07 39.497-.13 78.995.03 118.492.04 10.549-1.28 21.196 1.76 31.632.62 2.125.51 4.627-1.26 7.34zm-766.31 19.949c-9.17 3.137-17.83 2.58-26.44 2.582-50.95.014-101.9.025-152.85-.018-5.87-.005-11.73-.353-18.29-.259 3.35-24.524.39-49.514 1.29-74.402.17-4.764-2.94-5.23-6.52-5.492-1.81-.132-3.13-1.128-2.88-3.228.19-1.555 1.38-2.418 2.74-2.366 7.11.272 6.73-4.495 6.71-9.385-.07-21.653-.02-43.306-.01-65.896 9.77-3.563 19.77-2.932 29.71-2.935 47.98-.016 95.97.029 143.95-.05 6.34-.01 12.6.227 19.57 1.999 1.31-.182 1.77-.372 2.85-.167.89.813 1.15 1.232 1.66 2.349.78 4.554 1.51 8.385 1.73 13.011-.89 5.024-2.33 9.25-1.29 14.487 1.12 11.307.5 21.878.67 32.436.07 4.321.05 8.552 3.64 11.877 4.11 3.804 3.55 7.505-.95 10.601-1.85 1.271-2.47 2.964-2.47 5.898-.16 10.596.17 20.333-.14 31.007-.43 13.081 2.18 25.382-2.68 37.951z"/><path fill="#353638" d="M2298.45 672.072c1.58.245 2.24 1.172 2.48 3.033-1.79.277-4.1.382-2.48-3.033z"/><path fill="#001D3D" d="M2503.93 510.636c-.71-.747-.83-1.088-1.05-1.968 1.39-3.822 5.09-3.079 7.78-5.388.32-.676-.01-.885.07-1.062 10.25-5.942 21.78-8.116 32.56-12.284 7.26-2.804 10.02-6.232 7.53-14.137-3.19-10.148-5.16-20.658-4.62-31.426.38-7.401-3.41-9.922-10.34-9.939-9.63-.022-19.28.604-29.67-.726-1.23-.529-1.69-.817-2.75-1.66-.6-1.421-.6-2.285-.51-3.792 6.14-4.858 12.93-2.907 19.45-2.893 3.32.007 6.55 1.09 9.86 1.399 11.83 1.105 12.87.323 14.67-11.364 1.67-10.853 3.39-21.748 7.8-31.855 3.17-7.248.79-11.245-5.96-13.933-10.81-4.301-21.12-9.709-31.69-14.559-3.27-1.505-7-2.413-8.35-6.936.29-.726.15-1.516.19-1.915 4.9-3.604 9.08-.385 13.01 1.504 10.17 4.892 20.59 9.268 30.69 14.276 6.07 3.008 10.35 3.042 13.87-3.637 6.86-13.009 16.87-23.789 26.34-35.825.78-.922 1.11-1.273 2-2.083 15.36-10.58 29.3-22.064 46.25-28.761 5.73-2.264 4.12-6.825 2.39-10.97-5.23-12.619-8.51-25.935-13.75-38.553-1.02-2.453-1.97-4.97-1.08-8.337 1.32-1.118 2.24-1.634 3.72-2.135 5.22 3.827 6.54 9.501 8.5 14.738 3.51 9.339 6.42 18.89 9.69 28.316 3.73 10.764 4.25 10.986 14.95 8.545 9.41-2.147 18.85-4.385 28.55-4.19 8.01.161 10.54-3.848 10.24-11.114-.43-10.635.56-21.267.31-31.904-.12-5.062.53-9.944 3.16-15.194 1.02-.687 1.57-.745 2.95-.8 5.33 11.232 2.55 22.86 2.67 34.325.02 1.974-.57 3.932-.83 5.906-2.15 16.838-1.39 17.899 15.2 20.6 4.92.801 9.76 1.923 15.29 3.51 15.69 4.299 15.35 4.151 21.69-10.508 5.05-11.688 7.59-24.658 17.42-34.291.73.101 1.49-.078 1.87-.061 3.3 4.058.48 7.577-.87 11.045-4.44 11.403-8.78 22.85-13.8 34.02-1.63 3.624-4.02 7.896 1.41 10.101 17.49 7.111 30.44 20.903 46.7 31.073.98.678 1.34.988 2.07 1.91 1.86 7.081 6.66 11.501 10.46 16.466 5.93 7.739 10.31 16.33 14.33 25.082 3 6.515 6.95 7.868 13.53 5.209 14.78-5.982 30.02-10.811 45.48-16.844 1.86 1.275 1.67 2.863 1.8 4.943-1.82 4.765-5.97 5.626-9.59 7.022-10.83 4.172-21.55 8.669-32.67 12.03-7.71 2.334-10.88 6.127-8.13 14.619 3.26 10.091 5.07 20.642 4.93 31.326-.09 6.796 2.78 9.674 9.52 9.45 5.96-.199 11.94-.167 17.9.045 3.59.128 7.42-.236 9.96 3.918-.06.794.04 1.581.04 1.978-6.36 5.914-14.01 3.129-21.06 3.328-15.78.444-15.83.141-18.26 15.307-1.38 8.575-3.47 16.974-6.06 25.24-3.49 11.105-3.57 11.075 6.58 15.779 9.37 4.342 18.54 9.095 28.09 13.049 3.95 1.633 8.14 3.192 10.6 8.032.12.77.01 1.696-.17 2.129-3.96 2.874-7.15.438-10.5-.803-12.2-4.515-23.44-11.161-35.49-16.045-5.37-2.178-8.82-1.168-11.55 3.842-5.27 9.689-11.55 18.744-18.94 26.902-5.26 5.821-5.94 10.624.65 15.745 2.33 1.814 4.3 4.198 5.11 7.957-.12 1.157-.27 1.606-.93 2.541-6.66 1.774-9.36-3.27-12.69-6.595-4.39-4.382-8.03-4.695-12.78-.483-3.9 3.458-8.04 7.047-14.38 7.305-.93-.629-1.19-1.023-1.63-2.106-.2-5.554 3.82-7.251 6.91-9.609 3.98-3.034 8.24-5.77 8.99-11.358.29-2.126 1.39-3.446 3.59-4.221 14.88-5.246 20.6-18.903 27.96-30.967 3.69-6.036-.86-8.037-5.35-10.204-23.94-11.563-48.27-22.302-72.99-33.979-2.51-1.451-3.88-2.902-3.65-5.872 1.31-1.332 2.29-1.759 4.17-2.026 21.32 6.826 40.07 17.708 59.96 26.017 1.23.511 2.38 1.185 3.57 1.775 22.4 11.096 23.56 10.56 29.03-13.606 1.32-5.836 2.18-11.745 2.85-17.698.58-5.116-1.51-7.516-6.5-7.729-.99-.042-1.99-.146-2.98-.108-29.24 1.104-58.35-3.307-88.43-2.033-11.84-2.138-23.17-.823-34.9-3.688-.98-1.075-1.21-1.641-.97-2.997 11.01-5.205 22.06-2.203 33.71-2.98 31.48.747 62.08 2.291 92.7 3.042 7.91.194 9.48-2.834 8.49-9.26-1.32-8.56-2.02-17.219-4.09-25.66-2.52-10.315-3.66-11.041-13.63-7.63-26.17 8.959-51.81 19.398-78.86 28.291-1.9.151-2.97.007-4.72-.698-2.82-2.766-.78-4.091 1.22-6.02 26.34-11.25 52.89-19.895 78.94-29.888 10.06-3.862 10.48-4.764 6.06-14.322-4.05-8.791-8.96-17.037-15.08-24.563-5.95-7.315-6.8-7.322-13.98-.648-4.33 4.031-7.71 9.246-14.36 11.39-1.17-.116-1.62-.26-2.56-.919-1.3-8.633 5.88-11.547 10.07-16.242 6.95-7.789 7.3-9.121-.38-15.916-8.74-7.731-18.49-13.937-28.9-19.282-5.89-3.022-9.3-1.62-11.3 3.908-3.27 9.046-8.12 16.147-11.89 25.788-10.92 24.956-18.54 51.712-28.54 76.26-1.74 4.265-2.98 8.857-7.71 12.036-1.24.21-1.75.173-2.92-.258-1.6-5.213.22-9.594 2.01-13.77 12.08-28.31 25.03-56.492 37.14-85.574 2.33-5.122 4.08-10.103 5.87-14.659 3.92-9.996 2.26-10.042-9.12-13.309-7.33-2.689-14.22-3.64-21.13-4.706-6.72-1.037-10.22.9-9.98 8.13.73 22.262-2.95 44.369-2.16 66.67.67 18.917-1.54 37.738-3.98 57.371-1.9 3.065-4.03 2.989-6.78 1.059 1-9.476.7-18.474.63-27.161-.25-31.611 3.09-63.094 2.49-94.684-.23-12.437-1.95-14.148-13.94-12.464-5.92.83-11.85 1.718-17.68 3.139-11.6 2.827-12.44 3.835-8.46 14.8 9.63 26.576 18.66 53.368 28.36 79.922 3.76 10.3 7.72 20.555 9.32 32.299-.15 1.251-.37 1.717-1.14 2.698-7.54-.242-7.81-6.386-9.47-11.066-11.98-33.879-23.5-67.921-35.93-101.642-3.95-10.727-5.43-11.19-15.91-5.959-8.67 4.329-16.39 10.166-24.35 15.614-6.17 4.225-6.47 8.632-.77 13.621 2.48 2.173 4.84 4.614 5.85 8.696-.08 1.185-.21 1.647-.84 2.628-6.23 1.998-8.98-2.513-12.05-5.686-5.03-5.219-8.92-5.677-13.64.594-5.8 7.701-11.67 15.292-16.82 23.478-3.53 5.607-2.77 8.609 3.31 11.467 22.54 10.607 45.21 20.949 67.88 31.287 10.58 4.824 20.74 10.574 31.74 14.474 1.83.651 3.63 1.885 5.84-.51.65-.935.94-1.297 1.89-1.958 6.31-.617 7.98 3.927 10.35 8.421-.69 3.457-2.08 5.621-5.39 7.075-17.82-2.828-32.23-12.318-47.64-19.18-21.25-9.459-42.4-19.179-63.35-29.309-11.47-5.545-12.91-4.797-17.01 7.253-2.79 8.23-4.13 16.757-5.74 25.254-1.41 7.449 1.29 10.726 8.78 10.445 23.28-.876 46.4 3.001 69.71 2.143 18.26-.673 36.44 1.419 55.34 4.022 2.22 2.359 2.21 4.398-.24 6.626-8.89-.971-17.18-.973-25.2-.847-32.29.506-64.45-3.151-96.72-2.398-11.8.275-13.13 1.547-12.36 13.499.52 8.001 2.65 15.724 4.45 23.505 1.62 6.955 5.25 8.089 11.71 5.661 32.07-12.069 64.25-23.876 96.46-35.571 5.67-2.059 11.38-3.633 18.07-4.691 1.25.174 1.72.403 2.67 1.22.67 6.002-3.79 6.852-7.37 8.141-34.68 12.49-69.1 25.703-103.83 38.068-12.25 4.364-12.75 5.089-6.52 16.885 5.88 11.129 11.62 22.48 23.14 30.23 1.04.602 1.44.868 2.33 1.654 1.69 7.768 7.64 11.038 12.54 15.35 4.67 4.107 10.47 6.826 14.57 12.549.37 1.605.32 2.537-.26 4.074-11.24 1.332-16.97-7.473-24.29-12.921-9.47-7.058-8.95-7.441-17.3.461-4.69 4.441-8.2 10.447-15.78 12.15-1.11-.328-1.52-.566-2.24-1.442.55-9.302 8.08-13.066 13.26-18.305 5.6-5.656 6.08-9.988.66-16.072-6.87-7.72-12.31-16.643-16.25-26.215-3.28-7.974-7.4-10.663-15.96-6.713-9.94 4.593-20.52 7.796-30.87 11.462-3.44 1.219-6.78 2.94-11.16 1.155z"/><path fill="#FCFCFC" d="M2508.24 347.453c9.76 5.698 19.9 9.113 29.38 13.897 5.04 2.546 10.34 4.6 15.43 7.049 10.68 5.13 8.82 3.897 5.38 12.927-5.15 13.467-8.45 27.374-9.38 41.722-.34 5.316-2.27 6.79-7.28 6.478-12.29-.766-24.6-1.155-37.82-1.806-1-1.764-1.16-3.419-1.14-5.071.07-7.565.09-7.815 7.34-7.891 4-.042 7.02-.416 7.9-5.097.26-1.387 2.13-1.259 4.16-1.696 1.07-.546 1.38-.845 2.03-1.691 1.22-18.994 1.87-15.12-13.57-15.558-5.63-.16-11.26-.145-17.85-.565 1.57-12.864 5.45-24.961 10.36-36.712.93-2.21 1.01-5.321 5.06-5.986zm-3.59 84.462c12.93-.216 25.56.014 38.18.009 4.28-.001 5.84 1.736 5.78 5.973-.21 15.422 2.46 30.426 7.2 45.071.76 2.336 1.68 4.866-1.36 5.859-14.13 4.625-27.38 11.813-42.93 13.779-.48-2.503.01-5.251-2.65-5.148-6.87.265-6.09-4.233-6.08-8.557.04-17.777.04-35.554.21-54.257.47-1.477.86-1.959 1.65-2.729z"/><path fill="#EBECEE" d="M2504.43 431.429c.4.796.07 1.349-.86 2.04-.54-.112-.66-.474-.75-1.408.38-.636.74-.7 1.61-.632z"/><path fill="#4C4B4D" d="M2524.2 405.958c.22.452.07 1.132-.66 1.787-.46-.633-.18-1.144.66-1.787z"/><path fill="#FCFCFC" d="M2628.28 233.383c8.52 17.091 13.42 35.412 20.22 53.036.88 2.276 1.21 4.557-1.87 5.711-17.93 6.716-33.16 17.936-48.37 29.179-.19.142-.64-.066-1.57-.362-1.25.342-1.92.4-3.05-.582a86.08 86.08 0 0 1-2.49-2.527c-1.14-1.404-1.15-2.702-2.26-4.146-.99-1.056-1.58-1.649-2.62-2.702-6.3-6.346-12.15-12.231-18.31-18.323-.26-.256-.68-.342-.37-.139 5.95 5.833 11.56 11.481 17.7 17.544a548.67 548.67 0 0 0 2.69 2.666c1.24 1.273 1.85 2.239 2.3 3.907.71 1.059 1.18 1.604 2.08 2.48.87.873 1.36 1.38 2.13 2.333 1.14 3.003-.03 4.758-1.79 6.529-10.84 10.87-19.91 23.092-26.74 36.839-2.25 4.516-4.77 4.337-8.65 2.518a1995.612 1995.612 0 0 0-47.63-21.565c-2.08-2.333-1.14-4.435-.07-6.552 10.74-21.227 24.59-40.18 41.49-56.907 1.12-1.107 2.35-2.432 5.56-1.558 1.29-.075.76-.529.54-.798-.72-4.4 2.74-5.9 5.13-7.935 19.47-16.654 41.08-29.72 65.95-38.646zm79.07-13.235c.36 18.706-.24 37.313-.59 55.924-.08 4.443-2.09 5.638-6.13 5.632-14.41-.022-28.53 2.295-42.24 6.542-4.88 1.513-6.33.034-7.76-4.24-5.72-16.993-11.76-33.878-17.7-51.558 23.8-9.014 48.35-12.792 74.42-12.3z"/><path fill="#FCFCFC" d="M2707.35 220.148c.36 18.706-.24 37.313-.59 55.924-.08 4.443-2.09 5.638-6.13 5.632-14.41-.022-28.53 2.295-42.24 6.542-4.88 1.513-6.33.034-7.76-4.24-5.72-16.993-11.76-33.878-17.7-51.558 23.8-9.014 48.35-12.792 74.42-12.3zm37.99 66.224c-10.76-1.003-20.86-3.014-31.06-4.23-4.58-.547-5.34-2.626-5.17-6.46.76-17.93 1.42-35.865 2.26-54.701 9.47-.142 18.82.354 28.77 2.622 3.22 2.808 3.94 6.084 4.39 9.393 2.35 17.509 1.6 35.109.81 53.376z"/><path fill="#6C6B6C" d="M2848.6 592.004c-5.06-2.165-8.19-6.536-11.89-11.169-.12-.968.01-1.315.65-1.836 4.8 2.502 7.81 6.457 11.32 10.839.24.992.21 1.346-.08 2.166z"/><path fill="#001D3D" d="M2556.87 280.084c.73-.106 1.35.176 2.11.974.15.516-.26 1.296-.65 1.501-.4.205-1.18-.358-1.31-.826-.12-.468-.26-1.262-.15-1.649z"/><path fill="#424043" d="M3277.5 465.244c-3.37-1.166-6.43-1.689-9.67-1.565-1.95.075-3.82-.258-4.73-3.22 3.75-.719 7.63-.803 11.51-.665 3.19.113 4.94 1.48 2.89 5.45z"/><path fill="#FCFCFC" d="M2503.69 597.847c-.9-4.254-2.17-8.734 4.48-8.232 2.01.151 2.83-1.286 2.88-3.168.04-2.044-1.13-3.118-3.01-2.955-5.79.498-5.26-3.48-5.25-7.144.05-12.907.11-25.814.21-39.656 3.12-1.661 4.17.794 5.22 2.706 7.89 14.321 17.48 27.465 27.58 40.269 2.01 2.55 4.42 5.142 3.17 9.533-.81 1.245-1.37 1.865-2.38 2.883-.95.964-1.49 1.502-2.42 2.422-.61.662-.84.936-.71.784.92-.957 1.46-1.5 2.43-2.479 1.04-1.024 1.68-1.579 2.98-2.39 5.05-1.144 8.2 1.217 11.13 3.989 11.27 10.673 23.41 20.22 36.54 28.506 4.51 2.84 8.29 6.159 2.65 12.188-11.16.563-21.73.672-32.29.848-2.53.042-6.06-.624-5.71 3.399.33 3.879-2.97 9.575 2.56 11.244 4.45 1.344 4.86 3.513 4.67 7.026-.64 11.466 1.43 23.043-1.47 35.256-1.37 11.832-9 19.871-13.7 29.242-8.75 17.447-18.99 34.13-27.7 51.625-1.33 2.664-2.89 5.223-5.82 7.621-2.11 2.046-2.51 4.766-5.78 5.364-1.74-5.393-.98-11.037-1.14-16.646-.11-4.218-1.07-9.06 6.01-8.448 2.06.178 2.26-1.912 2.19-3.636-.07-1.567-.97-2.618-2.44-2.435-6.47.806-5.79-3.613-5.79-7.65 0-21.185.12-42.37-.11-63.552-.06-5.585.43-9.803 7.47-9.358.22.014.52-1.071.66-2.467-.36-1.165-.6-1.507-1.34-2.249-2.33-.757-4.18-1.115-6.5-2.003-.37-12.812-.27-25.094-.21-38.361 2.46-2.42 5.11-1.705 7.75-1.632 11 .304 17.71-5.606 17.85-15.524.13-10.191-4.63-14.211-17.08-14.363-2.32-.028-4.65.376-7.58-.557z"/><path fill="#FCFCFC" d="M2564.78 566.252c7.63-5.022 13.1-11.726 19.5-17.385 6.8-6.015 6.72-6.159 13.07-.261 7.53 6.979 15.61 13.216 25.03 18.749 2.17 11.441-5.22 18.968-11.35 27.68-11.32 1.088-11.31 1.088-11.42 11.809-.04 3.866.46 7.836-2.04 12.151-2.28 4.67-5.46 4.533-8.58 2.645-15.52-9.392-30.16-19.899-41.84-34.023-.86-1.03-1.19-2.33-1.26-4.356 2.68-3.823 6.11-6.074 9.18-9.574.81-.82 1.22-1.176 1.67-1.479.52-.352.38-.288-.84.573-3.18 2.895-5.44 5.997-9.54 7.96-4.38 1.248-7.15-.527-9.36-3.178-13.19-15.893-25.08-32.608-32.13-53.054-.99-4.693-2.94-8.506-1.68-13.52 15.52-5.034 30.12-11.431 45.12-16.709 2.19-.77 4.35-1.62 6.55-2.353 2.17-.722 3.84-.241 4.8 2.066 7.03 16.985 16.86 32.277 29.24 46.226-8.57 8.208-16.47 15.773-24.73 23.9.04 1.124.24 1.752.61 2.133z"/><path fill="#001D3D" d="M2695.34 635.564c-.11-12.641.41-25.258.93-37.876.3-7.261.3-7.333-6.45-7.968-12.96-1.217-25.75-3.494-37.85-8.247-5.58-2.192-7.88-.412-10.33 4.308-3.4-4.417-6.72-8.367-9.67-13.363-.01-1.189.09-1.662.64-2.708 9.16.641 12.81-3.851 15.79-11.708 11.39-30.015 24.81-59.225 36.2-90.055.43-1.171.64-1.635 1.22-2.768 2.45-2.655 3.35-6.649 8.04-4.234 2.02 5.253-.28 9.091-1.92 13.066-12.31 29.846-24.39 59.788-36.76 89.611-4.14 10-3.72 10.52 6.79 13.823 7.02 2.205 14.23 3.469 21.47 4.512 8.94 1.287 10.98-.045 10.64-9.306-1.03-28.314 2.88-56.476 2.21-84.77-.12-4.873-.99-10.083 3.45-14.667 1.29-.33 1.84-.315 3.11.102 5.03 11.367 3.51 22.903 2.43 33.918-1.67 16.984-1.22 33.912-1.52 50.869-.05 2.996.03 5.995-.16 8.988-1.05 16.345.24 17.59 16.4 15.228 5.6-.819 11.15-1.988 16.66-3.257 8.79-2.024 10.14-4.083 7.1-12.52-9.48-26.313-18.37-52.832-27.88-79.13-3.85-10.628-8.13-21.134-10.12-33.135.47-1.877 1.14-2.692 2.91-3.396 2.55.052 3.61 1.2 4.93 3.21.61 1.137.81 1.605 1.27 2.792 8.8 27.559 18.64 53.954 27.98 80.519 2.97 8.443 5.82 16.927 8.88 25.337 1.08 2.996 1.2 6.669 5.43 8.411 5.65.422 9.8-2.954 15.43-2.802 1.72.568 2.47 1.245 3.12 2.951-4.57 9.55-14.41 8.846-22.56 12.948-13.99 5.055-27.62 8.135-41.68 8.196-7.62.032-9.74 3.438-9.72 10.331.04 10.572 1.18 21.335-3.97 32.07-.94.683-1.37.713-2.44.72z"/><path fill="#FCFCFC" d="M2558.53 784.26c-2.19 2.435-4.8 2.527-7.43 2.406-12.67-.582-25.4 1.278-38.31-1.998 1.72-12.162 8.69-21.195 13.76-31.005 6.96-13.453 14.57-26.581 21.73-39.946 2.08-3.878 3.28-9.041 9.85-8.123.4 26.319.34 52.046.4 78.666z"/><path fill="#001D3D" d="M2775.25 572.334c-.78-1.209-1.27-1.778-2.3-2.54-5.33-11.221-11.75-21.417-17.22-32.915-12.06-21.882-23.36-43.353-35.15-64.559-2.75-4.941-4.87-10.182-7.14-16.123-.4-.603-.46-.481-.39-.476-.96-.857-1-2.22-2.07-3.727-1.16-.445-1.88-.457-3.48-.695-4.08-.594-1.73 1.913-2.4 3.518.83 6.522 1.56 12.334-1.95 18.339-.67.477-1.37.418-1.72.499-5.07-5.513-2.63-12.212-3.24-19.171-.28-1.823-.1-3.315-1.6-3.505-.84-.106-1.35.909-2.13 2.244-1.49 2.206-2.98 3.318-5.64 3.834-1.17-.177-1.61-.386-2.5-1.173-1.07-1.926-1.26-3.351-1.11-5.527.45-3.726 3.58-4.978 4.13-8.206-.39-.572-.26-1.37-.13-1.813 2.24-1.658 1.78-3.66 1.62-6.903 1.03-3.205 2.14-5.054 3.72-7.329 1.33-1.362 1.08-2.667 2.07-4.058.48-.341 1.25-.196 1.69.021 1.66 2.255 3.62 1.797 6.17 1.626 1.11-.704 1.51-1.317 2.44-1.906.55.032 1.27.112 1.62.019 1.34.791 2.55 1.361 4.07 2.631 1.36 1.416 2.07 2.508 3.02 4.209.44.978.58 1.383.82 2.424.09 1.497-.08 2.327-.78 3.633-.45.94-.51 1.376-.61 2.472.59 1.318 1.11 2.045 1.76 3.478.33 1.073.44 1.508.7 2.594 1.87 6.869 8.95 9.65 10.18 16.857-.18 2.192-1.15 3.654-.24 5.87 10.48 16.541 18.26 33.88 28.48 50.651 6.04 12.567 13.5 23.599 18.95 35.696 1.83 4.064 4.62 7.219 9.13 9.704.69.88.75 1.456.9 2.899-3.62 3.313-2.67 6.184-.89 9.349 3.71 6.584 7.26 13.258 11.08 20.577-1.37.784-2.93.885-5.28.948-6.62-6.845-10.5-14.809-14.58-23.466zm-227.37 9.478c-1.26 2.824-.05 4.261 1.4 5.741 12.48 12.775 26.42 23.693 41.63 33.027 1.82 1.119 3.51 1.817 5.88-.33 5.87 2.33 3.59 6.348 2.21 10.906-1.34 1.877-2.62 3.004-4.53 4.37-1.89.258-3.22.2-5.21.074 1.86-4.655 2-7.747-3.65-10.942-13.87-7.85-26.23-17.932-37.53-29.189-2.79-2.78-5.51-4.622-10.22-3.701-.13-3.361.76-6.337-2.5-9.853-12.58-13.575-22.5-29.108-31.74-45.8-3.89-4.277.3-7.699.66-11.871 6.79 10.023 11.57 21.395 18.82 31.318a593.68 593.68 0 0 0 16.29 21.319c1.52 1.89 2.75 4.763 6.86 3.95 1.19-.077 1.62.153 1.63.981z"/><path fill="#001D3D" d="M2633.13 569.05c-.2 1.212-.23 1.729-.29 3.022-7.69 6.493-9.67 16.164-16.15 23.471-2.02.267-3.46.169-5.61-.029 3.67-8.905 8.05-17.708 12.19-27.24-.23-1.531-.23-2.331-.28-3.73 19.84-33.29 37.07-67.435 55.33-101.807.39-1.112.56-1.55 1.03-2.628.75-1.464 1.25-2.26 2.25-3.562 1.56-1.529 2.82-1.992 4.84-1.257.85.711 1.15.981 1.92 1.656.99 2.901.37 5.228-1.04 8.078-.45.574-.37.699-.4.637-14.46 31.904-32.82 61.799-49.03 92.83-1.69 3.232-3.36 6.433-4.76 10.559z"/><path fill="#6C6B6C" d="M2558.85 705.385c-3.46-.898-4.23 1.796-5.26 3.696-7.34 13.44-14.6 26.92-21.92 40.367-6.05 11.106-12.14 22.185-18.7 33.799-1.28-.024-2.09-.572-3.36-1.278 3.27-9.71 8.79-18.347 13.59-27.339 10.74-20.091 21.78-40.017 33.21-60.462 2.93 2.831 2.44 6.699 2.44 11.217zm63.73-83.266c1.36-1.031 2.32-1.665 3.89-2.373 1.8 1.862.6 3.538-.59 5.635-2.76.354-4.44-.097-3.3-3.262zm131.69-35.76c4.35-.78 4.02 3.014 4.66 6.716-.15.781-.82.985-1.16.907-1.28-2.37-2.23-4.661-3.5-7.623z"/><path fill="#EBECEE" d="M2594.77 635.896c-.6-2.177-.22-4.191 3.37-4.087 1.57 2.939.54 4.357-3.37 4.087z"/><path fill="#4C4B4D" d="M2707.58 597.591c-.15-.448.1-1.056.88-1.546.36.676.01 1.099-.88 1.546z"/><path fill="#353638" d="M2509.15 670.281c.46-.162 1.1.069 1.64.866-.67.371-1.12.024-1.64-.866z"/><path fill="#001D3D" d="M2503.02 598.437c2.23-1.638 4.39-2.468 6.61-2.995 7.17-1.698 14.32.232 18.79 5.096 5.38 5.857 4.44 17.503-.11 23.176-5.26 6.55-12.02 8.937-20.24 6.388-1.26-.39-2.49-.858-4.55-1.227-.72-9.788-.63-19.64-.5-30.438z"/><path fill="#FCFCFC" d="M2696.56 421.256c.24 1.627-.07 2.804-.95 4.203-3.22-2.56-5.86-5.342-9.02-8.509-.51-.386-1.04.189-1.4.32-.36.132-.6-.58-.98-.537-.37.043.2.54.35.893.77 2.899 4 4.158 3.57 7.249-1.65 2.268-3.65.999-5.26.257a49264.345 49264.345 0 0 1-113.01-52.177c-.85-.396-1.48-1.277-2.5-2.184 6.95-14.867 16.39-27.945 27.73-39.749 2.63-2.744 4.76-2.878 7.35-.032 4.01 4.426 8.2 8.701 12.86 13.406 1.2-.235 1.87-.296 2.99.684.99.965 1.54 1.524 2.49 2.527 1.15 1.405 1.16 2.703 2.27 4.147.99 1.056 1.58 1.648 2.62 2.701 6.3 6.347 12.15 12.232 18.31 18.324.26.256.68.342.37.139-5.95-5.833-11.57-11.482-17.7-17.545a704.478 704.478 0 0 1-2.69-2.666c-1.25-1.273-1.85-2.239-2.31-3.907-.7-1.058-1.18-1.604-2.08-2.48-.87-.874-1.36-1.381-2.13-2.336-3.5-5.974-8.51-9.953-12.71-14.624-2.39-2.647-3.21-4.686-.02-7.389 12.56-10.642 26.39-19.128 41.57-25.495 5.36-2.245 6.16 1.273 7.42 4.891 7.7 21.973 15.44 43.93 23.22 65.875 6.33 17.867 12.73 35.71 19.64 54.014zm-16.08 38.211c2.77 1.608 1.39 3.119.69 4.414a59893.486 59893.486 0 0 1-53.04 97.857c-.74 1.369-1.5 3.044-4.42 2.354-9.24-6.787-18.22-12.803-25.83-20.514-1.88-1.904-4.11-3.656-.95-7.035.67-1.332 1.18-1.967 2.21-2.985 1.05-1.038 1.65-1.634 2.72-2.69 5.89-5.864 11.33-11.243 17.11-17.141.73-1.196 1.8-1.051 2.05-1.812.06-.185-.25-.332-.49-.303-1.32.161.45-.249-.75 1.285-5.99 5.898-11.5 11.399-17.44 17.428-1.1 1.118-1.74 1.751-2.84 2.857-1.09 1.114-1.77 1.674-3.09 1.778-2.91 1.235-4.96 2.105-7.37-.7-10.52-12.224-18.75-25.817-25.22-40.554-2.17-4.926 1.42-5.626 4.52-6.772 17.15-6.337 34.32-12.63 51.47-18.97 22.75-8.414 45.5-16.858 68.7-25.838 2.03-.04 3.92.416 2.42 2.652-.9 1.345-2.21 2.421-3.69 4.21-5.92 8.246-14.05 13.353-20.55 20.974-.99 1.009-1.55 1.568-2.46 2.488-.36.363-.98 1.065-1.39 1.25-.4.186-.72 1.003-.64.539.41-.535.74-.605 1.4-1.083.89-.935 1.42-1.467 2.4-2.437 4.99-4.037 7.75-9.785 14.48-11.252zm9.6-27.627c.68.239.7.878.68 1.197-6.98.377-13.97.675-20.93.452-36.88-1.18-73.76-2.463-110.64-3.782-6.41-.229-6.61-.4-6.17-6.972 1-15.051 4.92-29.428 10.3-43.47 1.65-4.301 4.05-4.283 7.7-2.574 17.43 8.182 34.95 16.195 52.42 24.295 21.99 10.192 43.97 20.409 66.64 30.854zm-.96 8.03c-26.61 8.513-52.41 19.107-78.66 28.434-14.7 5.223-29.35 10.608-43.89 16.242-4.14 1.601-6.03.805-7.29-3.349-4.19-13.76-6.75-27.768-6.77-42.172-.01-6.214.31-6.476 7.02-6.259 25.25.816 50.5 1.744 75.75 2.579 15.95.528 31.91.959 47.86 1.45 1.97.06 4.02-.062 5.94 2.23.26.869.08.741.04.845zm9.65-17.929c-6.63-22.407-15.25-44.001-22.77-65.976-6.35-18.545-13.01-36.982-19.45-55.498-2.36-6.805-2.27-6.93 4.34-8.893 12.17-3.62 24.6-5.752 37.33-5.9 7.78-.09 7.83-.017 7.64 7.563-.34 13.64-.67 27.281-1.13 40.917-.91 26.937-1.9 53.872-2.86 80.807-.08 2.327-.03 4.677-2.24 7.038-.88.286-.73.025-.86-.058zm8.71-.846c-.45 1.24-.88 1.755-1.8 2.384-.49-9.207-.72-18.536-.42-27.849 1.11-34.292 2.38-68.579 3.63-102.867.26-7.127.38-7.435 7.47-6.611 9.57 1.112 19.2 2.131 28.94 6.146 4.13 9.324 2.45 18.48 1.71 28.518-4.24 16.3-11.42 30.55-17.27 45.31-7.21 18.164-14.81 36.169-22.26 54.969zm38.84-85.909c-.62 17.314 3.08 34.953 2.65 53.678.99 2.428-.03 3.252-1.58 4.444-.54.363-.43.41-.45.353-.79.99-1.37 2.144-2.33 3.832-.7.844-1.01 1.149-1.85 1.855-2.74 1.798-4.74 3.431-6.7 6.026-.59.844-.82 1.177-1.41 1.987-.6.774-.85 1.072-1.87 2.182a62.549 62.549 0 0 1-2.3 2.287c-1 .959-1.24 1.194-2.21 2.124-.71.695-1.42 1.381-2.11 2.063-.69.682-1.37 1.36-2.05 2.03-.68.67-1.37 1.318-1.72 1.625-.36.307-1.11.858-1.5 1.092-.4.235-1.2.662-1.59.876-.39.213-1.15.662-1.51.907-.36.246-1.05.787-1.71 1.369-.66.582-1.38 1.118-2.21 1.386-2.67.277-4.89.925-4.89-2.878 3.37-3.625 4.07-8.02 5.68-11.855 10.46-24.916 20.74-49.907 31.66-75.383zm5.91 126.728c.59 7.703.63 15.148.65 23.552-1.16 1.337-2.24 1.08-3.83.503-.85-.376-1.17-.545-1.97-1.012-.75-.526-1.03-.753-2.11-1.728-1.05-1.01-1.3-1.272-1.9-1.944-.56-.697-.76-.986-1.24-1.728-.44-.754-.61-1.055-1.06-1.789-.47-.707-.67-.98-1.2-1.642a46.003 46.003 0 0 0-2.04-2.242c-.6-.598-.84-.84-1.44-1.454-.6-.62-.84-.87-1.84-1.877-1-1.023-1.24-1.289-1.85-1.976-.58-.718-.8-1.015-1.35-1.767-1.2-1.696-2.18-2.861-3.2-4.681-3.94-6.978-11.23-10.651-13.5-18.761.99-.986 1.68-1.132 2.91-1.126.87.172 1.21.278 2.03.604 1.11.538 1.74.847 2.86 1.35.82.337 1.15.473 1.98.807 1.18.44 1.86.667 3.1 1.029.9.273 1.26.397 2.15.749 1.24.561 1.95.9 3.2 1.508.91.463 1.27.663 2.14 1.194 2.55 1.77 4.68 3.009 7.66 3.959.97.345 1.36.494 2.3.907 1.28.661 1.98 1.094 3.44 2.48 1.72 2.218 2.63 3.522 4.11 5.085z"/><path fill="#FCFCFC" d="M2745.84 397.017c5.14 5.054 2.54 11.699 5.03 17.858-1.31 1.747-2.69 2.688-4.48 4.756-2.7 2.486-5.42 2.666-8.36 4.106-.97.468-1.35.653-2.31 1.108-1.35.615-2.13.958-3.48 1.564-.96.426-1.35.583-2.35.927-3.03.743-5.49 1.156-8.32 2.567-.97.441-1.37.605-2.38.941-1.49.272-2.35.197-3.75-.373-2.14-1.03-2.27-2.244-2.07-4.297-.34-.605-.4-.486-.45-.436.48-.386.97-.857 1.76-1.737.35-.373.27-.292.23-.254.46-.418.95-.888 1.77-1.747.35-.376.27-.307.23-.278.88-.807 2.1-.936 3.69-1.661.48-.362.39-.306.35-.271.43-.451.91-.934 1.75-1.77.37-.358.28-.281.25-.24.43-.442.91-.924 1.75-1.762.37-.358.28-.282.24-.241l1.76-1.76c.36-.361.28-.285.24-.244a518.762 518.762 0 0 0 2-2.002c.44-.436.92-.914 1.76-1.757.35-.363.27-.287.23-.248.45-.433.93-.909 1.77-1.753.35-.364.27-.288.24-.248 3.05-3.021 6.16-6.067 9.63-9.663.46-.469.39-.397.35-.365.61-.599 1.4-.931 2.92-.72z"/><path fill="#FCFCFC" d="M2750.07 420.335c.71 4.497.77 8.961.79 14.265-11.26.777-22.51.711-34.66.627-.91-.691-.91-1.364-.93-2.541.42-1.919 1.78-1.859 3.32-2.652.46-.384.37-.322.32-.293 3.47-1.615 7.29-2.25 11.59-3.618.58-.445.48-.389.43-.358.86-.85 2.08-.977 3.67-1.736.46-.381.36-.321.31-.294 3.48-1.595 7.29-2.262 11.6-3.61.57-.454.47-.396.43-.367.79.2 1.63.371 3.13.577zm-60.6 5.864c.76-.098 1.34.464 1.24.647-.61 1.085-1.19.381-1.24-.647z"/><path fill="#001D3D" d="M2839.61 308.085c-3.97 6.45-9.63 10.875-15.62 15.817-.62.234-1.57-.066-1.7-.544 4.03-6.421 9.62-10.916 15.69-15.788.63-.22 1.53.056 1.63.515zm19.37-18.257c.05 2.038-1.2 2.987-3.08 4.084-.56.191-1.47-.083-1.59-.544.45-1.973 1.43-3.114 3.44-3.862.55-.035 1.09.079 1.23.322zm-16.15 14.054c.74-1.541 1.48-3.442 3.25-1.812.62.573-.34 1.545-1.68 2.258-.57.213-1.43-.023-1.57-.446zm-21.63 21.697c-.06 1.159-.45 1.674-1.48 2.238-.45.19-1.06-.372-1.36-.664-.02-.883.37-1.401 1.27-2.098.76-.161 1.1-.07 1.57.524z"/><path fill="#001D3D" d="M2823.07 323.822c.11.97-.27 1.489-1.28 2.066-.44.194-1.1-.428-1.42-.757 0-.904.43-1.378 1.38-2.001.41-.251 1.02.378 1.32.692zm15.82-16.174c-.12-.968.25-1.504 1.27-2.102.78-.106 1.11-.015 1.56.571-.13 1.126-.56 1.613-1.57 2.191-.43.236-.98-.364-1.26-.66z"/><path fill="#001D3D" d="M2843.54 304.269c-.01.859-.41 1.362-1.3 2.063-.39.28-1.02-.343-1.32-.663-.1-.969.29-1.477 1.31-2.026.45-.184 1.03.355 1.31.626zm7.59-6.736c-.3 1.28-.86 1.939-1.89 1.515-.6-.247-.59-.823.38-1.793.46-.344 1.39-.176 1.51.278z"/><path fill="#001D3D" d="M2850.38 297.181c-.02-.868.37-1.39 1.28-2.089.75-.168 1.08-.083 1.55.496-.07 1.154-.46 1.667-1.5 2.216-.46.184-1.04-.354-1.33-.623z"/><path fill="#001D3D" d="M2855.05 293.806c.11.96-.25 1.487-1.26 2.077-.45.198-1.08-.409-1.4-.727 0-.896.43-1.374 1.39-1.999.42-.249.98.35 1.27.649zm-289.56-5.078c8.13 6.616 14.45 14.322 21.49 22.164.19.641-.24 1.487-.67 1.689-7.34-7.002-14.24-14.207-21.34-22.055-.16-1.051-.12-1.459.52-1.798zm25.7 28.796c-1.14-.385-1.99-1.055-3.1-2.212-.27-.488.15-1.367.6-1.568 1.25.476 2.05 1.152 3.07 2.328.22.5-.27 1.166-.57 1.452z"/><path fill="#001D3D" d="M2565.12 289.616c-1.7-.391-3.4-1.396-2.47-2.9.97-1.565 1.93.234 3.1 1.517.35.563-.3 1.116-.63 1.383zm28.41 29.007c1.05.328 1.53.783 2.29 1.655.27.417-.38 1.031-.71 1.326-.9-.046-1.47-.386-2.18-1.218-.09-.873-.03-1.254.6-1.763z"/><path fill="#001D3D" d="M2593.13 319.563c-.9-.028-1.46-.389-2.13-1.251-.11-.503.41-1.128.7-1.434.88-.04 1.39.348 2.1 1.238.29.381-.33 1.114-.67 1.447zm-6.29-7.725c.89.038 1.46.381 2.16 1.214.13.492-.49 1.156-.83 1.464-.88-.042-1.35-.466-2.02-1.348-.27-.384.36-1.026.69-1.33zm-28.02-29.977c1.26.054 2.04.57 1.55 1.714-.28.638-.95.619-2.03-.351-.41-.46.17-1.075.48-1.363z"/><path fill="#6C6B6C" d="M2833.08 575.94c-1.54-.821-3.59-1.608-1.86-3.418.62-.639 1.64.325 2.45 1.677.15.904.03 1.233-.59 1.741z"/><path fill="#001D3D" d="M2825.02 565.675c1-.131 1.52.25 2.13 1.246.11.787.02 1.128-.57 1.624-1.15-.062-1.67-.45-2.32-1.405-.27-.398.4-1.122.76-1.465z"/><path fill="#6C6B6C" d="M2836.83 579.869c-1 .126-1.52-.252-2.14-1.227-.1-.804.02-1.169.68-1.717 1.16.098 1.64.521 2.26 1.493.25.407-.45 1.105-.8 1.451z"/><path fill="#6C6B6C" d="M2833.6 575.103c.9-.027 1.38.373 2.05 1.254.03.631-.2.879-.81 1.486-1 .136-1.5-.261-2.06-1.277-.2-.446.47-1.134.82-1.463z"/><path fill="#001D3D" d="M2827.02 567.689c1.13.171 1.76.784 1.3 1.799-.28.6-.87.585-1.87-.356-.38-.433.24-1.12.57-1.443z"/><path fill="#4C4B4D" d="M2535.56 593.69c-1.23-.778-1.05-1.583.86-1.963.75.217.67.121.63.075-.38.519-.73 1.084-1.49 1.888zm-2.8 1.727c-.09 1.227-1.11 1.899-1.56 1.337-.49-.6.37-1.442 1.56-1.337zm2.26-1.638c-.15.639-.49 1.19-1.5 1.825-.43.224-.33.301-.27.347-.8-.94-.7-1.805 1.14-2.285.75.264.67.165.63.113z"/><path fill="#6C6B6C" d="M2548.07 582.203c-.79-.089-.95-.382-1.09-1.178 2.19-4.03 5.57-6.363 9.16-9.312 1.07-.171 1.5-.131 1.89.559-2.6 4.226-6.07 6.873-9.96 9.931z"/><path fill="#6C6B6C" d="M2557.07 571.864c.39-1.745 1.41-3.444 2.96-2.501 1.59.971-.18 1.977-1.48 3.191-.56.369-1.18-.327-1.48-.69z"/><path fill="#001D3D" d="M2564.84 565.609c-.24.873-.86 1.91-1.36 1.85-.88-.107-.99-1.068-.12-2.344.45-.434 1.16.164 1.48.494z"/><path fill="#6C6B6C" d="M2627.7 619.756c-1.46-3.591.96-6.337 2.71-9.795 2.16 3.638-.63 6.488-2.71 9.795zm4.01-9.945c-1.3-3.588 1.03-6.333 2.72-9.817 2.35 3.673-.56 6.54-2.72 9.817zm3.97-9.908c-1.2-3.221.61-5.622 2.67-8.204 1.43 3.249-.49 5.684-2.67 8.204zm3.96-8.374c-1.69-1.722-.72-3.496.74-5.59 1.83 1.751.66 3.485-.74 5.59z"/><path fill="#FCFCFC" d="M2702.66 474.561c-.02-7.788.14-14.648.18-22.45.85-1.44 1.89-1.632 3.71-1.16.72.357.58.549.68.616 6.98 24.038 16.37 47.152 24.32 70.758 5.41 16.072 11.38 31.957 16.97 47.969 2.77 7.945 2.7 8.174-5.08 10.315-11.59 3.191-23.36 5.344-35.45 5.362-8.85.013-8.97.06-8.68-8.613.91-26.966 1.94-53.929 2.89-80.893.25-6.99.42-13.983.46-21.904zm-2.24-25.559c.58 7.629.49 15.255.54 23.807-2.23 6.627-1.47 12.686-1.66 18.581-.98 28.933-1.71 57.875-2.56 86.813-.22 7.723-.27 7.722-7.88 7.387-12.81-.563-31.51-5.439-41.54-10.952 10.95-26.648 21.96-53.334 32.86-80.06 4.52-11.065 8.82-22.217 13.11-34.771 1.67-4.853 1.89-9.364 7.13-10.805zm12.16 7.304c1.58-.734 2.22-.076 2.71.83 13.78 25.736 28.4 51.027 41.5 77.901 3.03 13.053 4.86 25.452 1.55 38.95-4.18 3.681-5.26.682-6.3-2.28-3.99-11.265-7.99-22.522-11.91-33.808-9.36-26.953-18.68-53.92-27.55-81.593zm-78.9 113.508c-4.76-3.266-1.47-6.114-.05-8.741 11.3-21.062 22.74-42.056 34.17-63.053 5.86-10.759 11.79-21.481 18.38-32.321 3.09 3.22-.11 5.44-1.11 7.92-12.96 32.269-26.07 64.476-39.18 96.683-.48 1.163-1.35 2.164-1.98 3.16-3.78-.214-6.46-2.395-10.23-3.648z"/><path fill="#001D3D" d="M2687.54 465.881c-2.06-3.013.19-4.891 1.11-7.825 1.21-2.084 2.24-3.463 3.82-5.202 1.96 1.324 2.06 3.215.97 6.109-.45.887-.46.758-.39.746-2.93 1.12-2.41 4.901-5.51 6.172z"/><path fill="#FCFCFC" d="M2710.59 452.293c1.98-1 2.29.609 2.68 2.695-2.4 1.134-2.16-.735-2.68-2.695z"/><path fill="#001D3D" d="M2664.22 471.203c6.39-8.035 14.18-14.317 22.03-21.409.72 1.326.79 2.864.8 5.17-1.04 1.146-2.01 1.525-3.49 1.772-.78.704-1.2 1.457-2.18 2.631-.42.503-.41.356-.33.356-6.21 2.233-9.29 8.369-15.13 12.116-.64.204-1.55-.17-1.7-.636zm29.45-11.53c-.62-1.658-.57-3.492-.59-6.254 1.05-7.346 1.05-7.346 7.65-4.893-4.58 2.251-3.83 7.667-7.06 11.147zm39.37 7.443c-2.96 1.683-4.03-2.429-7.57-1.696-3.41-2.341-2.12-3.444 1.51-3.883 3.19.89 4.53 2.998 6.06 5.579zm-25.37-16.248c-1.43.123-2.46-.194-4.22-.105-1.01-2.79 1.63-3.176 3.67-4.112 1.26-.581 2.71-.949 3.14.876.37 1.561-1.18 2.129-2.59 3.341zm7.42-9.339c1.5.112 2.74.534 3.95 1.63-1.06.585-2.09.496-3.74-.069-.63-.475-.45-1.249-.21-1.561zm3.26-12.025c1.08 2.171-.53 2.159-2.44 2.613-.77-.267-.87-.599-1-1.448.89-.783 1.81-1.047 3.44-1.165z"/><path fill="#FCFCFC" d="M2681.87 459.885c-.57-.822-.24-1.63.64-2.86 1.25.744 1.16 1.843-.64 2.86z"/><path fill="#001D3D" d="M2655.6 384.802c7.36 7.013 14.26 14.239 21.37 22.102.17 1.058.13 1.48-.54 1.85-7.52-7.213-14.4-14.374-21.49-22.171-.07-.947.06-1.257.66-1.781zm-9.16-8.052c-7.52-7.219-14.41-14.382-21.49-22.186-.2-.64.23-1.51.67-1.714 7.34 7 14.25 14.206 21.36 22.051.16 1.062.13 1.483-.54 1.849z"/><path fill="#001D3D" d="M2646.83 375.822c1.71.396 3.42 1.411 2.48 2.937-.97 1.581-1.95-.205-3.14-1.501-.36-.564.31-1.153.66-1.436zm-23.59-24.108c-1.26-.483-2.07-1.166-3.13-2.343-.24-.493.24-1.226.6-1.487 1.19.413 2.04 1.087 3.15 2.249.27.487-.16 1.382-.62 1.581zm53.59 56.11c1.73.386 3.43 1.407 2.48 2.945-.97 1.582-1.96-.192-3.16-1.5-.36-.568.32-1.161.68-1.445zm-60-63.986c.9.042 1.47.383 2.18 1.214.09.875.03 1.26-.6 1.778-1.05-.324-1.53-.781-2.29-1.653-.27-.416.38-1.04.71-1.339z"/><path fill="#001D3D" d="M2623.78 350.93c.88.037 1.34.458 2.01 1.333.27.381-.37 1.039-.7 1.35-.9-.032-1.46-.375-2.16-1.208-.14-.491.5-1.166.85-1.475zm59.7 63.775c1.13.16 1.63.564 2.31 1.473.29.385-.38 1.115-.73 1.458-.92-.017-1.47-.377-2.16-1.229-.08-.854-.02-1.216.58-1.702zm-63.3-66.129c-.88.015-1.37-.374-2.06-1.24-.28-.372.34-1.117.69-1.455.91.021 1.46.381 2.13 1.241.12.5-.45 1.153-.76 1.454zm33.14 35.23c-1.07-.472-2.1-1.123-2.03-1.623.13-.916 1.09-.979 2.35-.04.35.844.28 1.198-.32 1.663z"/><path fill="#001D3D" d="M2655.07 385.618c-.9-.021-1.46-.369-2.15-1.21-.13-.491.48-1.149.81-1.463.88.014 1.35.418 2.05 1.271.28.372-.36 1.073-.71 1.402zm28.02 29.978c-.86-.243-1.89-.868-1.83-1.354.12-.873 1.07-.978 2.32-.111.43.45-.16 1.145-.49 1.465zm73.13-30.316c5.98-8.459 13.8-14.738 21.82-21.676 1.06-.194 1.49-.17 1.84.489-6.18 8.589-13.94 14.868-21.95 21.754-.64.221-1.56-.103-1.71-.567zm-9.57 11.362c-1 1.023-1.8 1.428-3.19 1.48-.62-2.354 1-3.178 2.83-4.405.6.694.57 1.5.36 2.925zm.82-2.755c-.06-1.164.5-2.113 1.3-3.578.24-.517 1.13-.649 1.58-.721.83-.037 1.22-.002 1.52.615-.65 2.433-1.93 3.484-4.4 3.684z"/><path fill="#001D3D" d="M2778.96 363.721c.67-1.336 1.3-3.292 3.13-1.587.12.111-.78 1.33-1.75 2.313-.53.28-1.1-.389-1.38-.726zm-23.83 23.849c-.66 1.235-1.48 2.011-2.83 3.001-.53.214-1.01-.42-1.26-.737.49-1.103 1.23-1.889 2.49-2.855.52-.179 1.44.132 1.6.591zm31.07-30.23c.11-1.116.5-1.631 1.45-2.287.4-.269 1.04.366 1.34.693.11.983-.26 1.509-1.28 2.102-.45.195-1.39-.035-1.51-.508z"/><path fill="#001D3D" d="M2786.97 357.744c-.16 1.083-.73 1.75-1.7 1.237-.2-.109-.03-.915.39-1.757.43-.357 1.03.22 1.31.52zm-32.62 29.369c.01-.88.43-1.362 1.33-2.027.39-.269 1.01.348 1.31.665.11.964-.26 1.483-1.25 2.076-.45.201-1.08-.401-1.39-.714zm-132.43 125.188c-5.74 7.348-12.74 13.133-19.99 19.538-.95.093-1.25-.032-1.73-.629 5.74-7.347 12.72-13.105 19.94-19.486.95-.107 1.26.003 1.78.577zm10.29-11.085c5.63-6.092 11.42-11.713 17.85-17.56.96-.086 1.3.053 1.86.685-5.63 6.09-11.5 11.686-17.99 17.498-.64.215-1.56-.152-1.72-.623zm-3.26 4.266c-.45 1.824-1.45 3.553-3.02 2.702-1.72-.927.05-1.963 1.34-3.189.59-.366 1.46.056 1.68.487zm32.02-30.003c-.48 1.823-1.48 3.56-3.04 2.701-1.72-.939.07-1.958 1.37-3.18.58-.368 1.46.041 1.67.479z"/><path fill="#001D3D" d="M2621.09 511.836c.24-.871.87-1.906 1.36-1.845.88.109.99 1.07.12 2.341-.45.432-1.15-.167-1.48-.496zm-24.92 23.1c.02-.906.43-1.411 1.32-2.133.78-.162 1.16-.046 1.66.648-.24 1.12-.62 1.663-1.48 2.338-.49.131-1.18-.511-1.5-.853z"/><path fill="#001D3D" d="M2600.98 531.725c-.03.894-.37 1.457-1.21 2.161-.73-.099-.97-.34-1.54-.971.02-.92.46-1.364 1.4-1.951.41-.228 1.04.43 1.35.761zm61.01-58.529c.18-1.138.64-1.612 1.64-2.218.43-.241 1.04.411 1.35.738-.04.892-.39 1.458-1.22 2.171-.87.052-1.24-.042-1.77-.691z"/><path fill="#001D3D" d="M2660.2 474.963c0-.877.4-1.355 1.25-2.043.62-.054.87.171 1.47.755-.02.904-.39 1.449-1.25 2.118-.5.124-1.16-.5-1.47-.83zm-32.02 29.996c.01-.902.42-1.41 1.32-2.131.78-.164 1.15-.05 1.65.635-.24 1.113-.62 1.654-1.49 2.323-.49.127-1.16-.498-1.48-.827z"/><path fill="#001D3D" d="M2632.98 501.725c-.03.894-.37 1.459-1.2 2.167-.73-.096-.97-.335-1.54-.958.02-.918.46-1.367 1.4-1.96.41-.23 1.03.423 1.34.751zm21.01-19.49c-.15 1.129-.55 1.625-1.46 2.311-.63.061-.88-.164-1.49-.753.02-.91.39-1.457 1.25-2.137.86-.074 1.22-.016 1.7.579z"/><path fill="#001D3D" d="M2653.1 481.851c.05-1.276.58-2.061 1.73-1.582.65.269.66.943-.27 2.076-.44.426-1.14-.167-1.46-.494zm124.26 33.167c7.09 4.688 12.15 11.042 17.79 17.681.11.961-.01 1.299-.63 1.833-7.04-4.73-12.19-11.021-17.78-17.728-.12-.96 0-1.295.62-1.786zm-21.61-19.366c-1.37-1.721-2.18-3.179-2.94-5.264 5.38-.265 6.99 4.621 10.36 8.282.12.954.01 1.281-.59 1.758-2.42-1.404-4.34-2.959-6.83-4.776zm-2.61-6.374c-3.25.203-4.41-2.37-6.15-4.997 2.29-1.723 3.18.477 5.24 1.808.8 1.107.97 1.875.91 3.189zm13.69 14.27c1.62.845 2.77 1.866 4.16 3.414.21.952.17 1.377-.51 1.744-2.14-.598-3.27-1.575-4.25-3.496-.09-.853.02-1.17.6-1.662z"/><path fill="#001D3D" d="M2773.1 511.918c-1.27-.631-2.05-1.434-3.05-2.752-.21-.517.48-1.108.83-1.393 1.13.469 1.89 1.222 2.85 2.497.07.839-.04 1.158-.63 1.648zm23.7 23.58c1.35.359 2.01.991 1.51 2.042-.3.611-.91.591-1.94-.4-.28-.815-.18-1.157.43-1.642z"/><path fill="#001D3D" d="M2796.33 536.347c-.89.017-1.37-.378-2.05-1.242-.27-.378.4-1.098.75-1.441.99-.127 1.5.258 2.08 1.251.21.44-.44 1.112-.78 1.432zm-20.95-23.429c1.15.105 1.63.533 2.24 1.528.25.415-.43 1.074-.77 1.403-.99.123-1.52-.253-2.13-1.243-.09-.802.02-1.159.66-1.688z"/><path fill="#001D3D" d="M2773.58 511.109c.89-.016 1.38.381 2.06 1.254.27.382-.41 1.103-.77 1.45-.99.124-1.49-.271-2.06-1.28-.19-.444.44-1.105.77-1.424zm-8.73-9.656c1.18.058 1.69.45 2.26 1.471.19.448-.43 1.103-.76 1.426-.9.022-1.42-.369-2.11-1.27-.15-.77-.03-1.121.61-1.627z"/><path fill="#001D3D" d="M2763.07 499.618c.98-.127 1.5.245 2.1 1.24.21.441-.47 1.133-.83 1.468-.92.015-1.38-.41-2.01-1.343-.25-.403.41-1.046.74-1.365zm-20.73-101.95c.19 5.429-5 6.891-8.74 10.165.04-5.277 5.08-6.812 8.74-10.165zm-21.82 21.478c.1 2.153-1.19 2.921-3.09 3.122-.22-2.243 1.18-2.939 3.09-3.122zm-4.07 2.573c1.23.982 1.01 1.844-.82 2.279-.42-.87-.09-1.527.82-2.279zm7.86-6.272c.42.867.08 1.522-.83 2.276-1.23-.978-1.02-1.841.83-2.276zm-9.88 8.247c1.22.994 1 1.837-.8 2.278-.43-.859-.11-1.535.8-2.278zm7.86-6.284c.43.893.09 1.533-.82 2.295-1.28-.977-1.08-1.867.82-2.295zm8.05-7.877c.41.822.11 1.525-.81 2.254-1.01-.963-.8-1.771.81-2.254zm2.02-1.982c.4.823.1 1.548-.83 2.264-.95-.983-.67-1.759.83-2.264zm-6.05 5.925c.43.852.11 1.525-.81 2.27-1.21-.987-.99-1.828.81-2.27zm2.03-1.973c.4.842.09 1.532-.83 2.267-1.04-.97-.77-1.781.83-2.267zm4.55 38.919c4.69-.94 8.22 1.908 12.1 4.68-4.69.939-8.2-1.956-12.1-4.68zm8.01 24.719c-2.64 1.952-3.33-.411-4.19-2.795 2.11-.542 2.88 1.053 4.19 2.795zm-17.71-28.761c1.7-1.827 3.41-.661 5.52.778-1.71 1.943-3.4.609-5.52-.778zm-4.14-2.03c1.32-1.358 2.65-.817 3.95.742-1.36 1.015-2.6.662-3.95-.742zm26 12c1.32-1.362 2.65-.815 3.95.742-1.24.456-2.5.174-3.95-.742zm-16.19-7.91c1.39-1.037 2.64-.685 3.98.738-1.34 1.438-2.67.836-3.98-.738zm14.62 30.767c-2.06.234-2.76-1.054-2.95-2.999 2-.152 2.72 1.098 2.95 2.999zm3.74 3.831c-.82.411-1.49.085-2.23-.829.97-1.176 1.79-.948 2.23.829zm-1.95-2.005c-.84.4-1.48.059-2.25-.846.94-1.132 1.8-.908 2.25.846zm-10.25-11.884c-.92.986-1.7.745-2.18-.836.77-.388 1.45-.071 2.18.836zm1.97 2.03c-.9.95-1.71.676-2.19-.865.79-.372 1.44-.038 2.19.865zm-6.64-45.82c-2.1 3.624-6.1 4.244-10.76 4.714 2.08-3.642 6.12-4.203 10.76-4.714zm15.99-5.947c-2.04 3.711-6.12 4.244-10.77 4.716 2.16-3.546 6.12-4.204 10.77-4.716zm-12 4.125c1.02 2.298-.71 2.174-2.74 2.391-.96-2.269.7-2.186 2.74-2.391zm-180.5-144.488 4.2-3.96 143.086 151.79-4.2 3.96zm229.18-44.539 5.32 2.238-80.88 192.28-5.32-2.237z"/><path fill="#001D3D" d="m2783.02 234.51 5.32 2.238-80.88 192.28-5.32-2.237zm-86.6 214.547 5.32 2.238-80.88 192.28-5.32-2.237zm-21.52 5.383 4.075 4.087-147.719 147.285-4.075-4.088zm58.7 14.503 4.322-3.826 138.272 156.187-4.322 3.826zm124.55-182.238 3.967 4.193-151.524 143.366-3.967-4.193zm-230.35-58.538 5.456-1.883 68.035 197.193-5.456 1.882z"/><path fill="#001D3D" d="m2707.02 212.453 5.77.14-5.093 208.538-5.77-.141zm-204.78 136.02 2.36-5.267 195.164 87.48-2.361 5.267z"/><circle cx="2705.91" cy="433.148" r="52.793" fill="#001D3D"/></svg>